<svg xmlns="http://www.w3.org/2000/svg" width="46" height="60" viewBox="0 0 46 60"><path d="M5.6 0A5.48 5.48 0 0 0 .13 6H.11v48.96A5.04 5.04 0 0 0 5.14 60H45V0zM2.1 54.96V10c.84.63 1.87 1 3 1v47a3.05 3.05 0 0 1-3-3.04zm5 3.04V11h2.98v25.2c0 .68.44 1.26 1.1 1.44.14.04.27.06.4.06h.05l.13-.02a1.52 1.52 0 0 0 .7-.28c.04-.03.08-.05.1-.08.12-.1.22-.21.3-.35l4.2-7.03 4.21 7.03c.33.55.94.8 1.55.69.04-.01.09 0 .13-.02.66-.18 1.1-.76 1.1-1.44V11h18.96v47zM22.2 9.48v.01l-.14.27v.05l-.1.23.1.15v24.2l-5-8.33-4.98 8.33V10.24L13.69 7h9.75zM24.67 9l2-4h-14.2l-2 4H5.8C3.9 9 2.3 7.62 2.12 5.86c-.1-1 .22-1.96.89-2.7A3.48 3.48 0 0 1 5.6 2H43v1h-4.98a1 1 0 0 0 0 2H43v1h-4a1 1 0 0 0 0 2h4v1z"/></svg>