<svg xmlns="http://www.w3.org/2000/svg" width="56" height="57" viewBox="0 0 56 57"><path d="M31.83 27.56c.17.32.5.51.84.51.14 0 .29-.04.42-.11.06-.02 5.55-2.81 8.26-3.67a.93.93 0 0 0-.56-1.78c-2.86.9-8.32 3.67-8.55 3.79a.94.94 0 0 0-.4 1.26zm.84-10.69c.14 0 .28-.04.42-.1.05-.03 5.55-2.82 8.26-3.68a.93.93 0 0 0 .6-1.17.94.94 0 0 0-1.16-.61c-2.86.9-8.32 3.67-8.55 3.79a.94.94 0 0 0-.4 1.26c.16.32.49.51.83.51zM55.07 15a.93.93 0 0 0-.94.93v36.4a2.8 2.8 0 0 1-2.8 2.8h-22.4v-2.14c1.36-.48 4.9-1.59 8.4-1.59 8.13 0 13.65 1.8 13.7 1.82a.94.94 0 0 0 1.24-.89V11.27c0-.44-.3-.82-.73-.91 0 0-.74-.17-1.99-.4a.93.93 0 1 0-.34 1.84l1.19.23v39.06a52.93 52.93 0 0 0-13.07-1.56 29.4 29.4 0 0 0-9.3 1.79 21.95 21.95 0 0 0-8.43-1.79 62.78 62.78 0 0 0-14 1.6V11.99a61.26 61.26 0 0 1 14-1.66c3.4 0 6.32 1.06 7.47 1.54V48.6a.93.93 0 0 0 1.41.8c.1-.06 9.34-5.58 17.55-8.31a.94.94 0 0 0 .64-.89V1.93c0-.3-.15-.59-.4-.76a.91.91 0 0 0-.87-.11 98.86 98.86 0 0 0-15.1 7.55.93.93 0 0 0-.3 1.28c.28.44.86.58 1.3.3.06-.04 6.64-4.13 13.5-6.89v36.23c-6.37 2.22-13.02 5.83-15.87 7.45V11.27c0-.36-.2-.68-.51-.84a21.64 21.64 0 0 0-8.82-1.96 60.56 60.56 0 0 0-15.19 1.9.93.93 0 0 0-.68.9v41.06a.94.94 0 0 0 .94.94A59.85 59.85 0 0 1 19.6 51.4c3.41 0 6.33 1.06 7.47 1.54v2.19H4.67a2.8 2.8 0 0 1-2.8-2.8v-36.4a.93.93 0 0 0-1.87 0v36.4C0 54.91 2.1 57 4.67 57h46.66A4.67 4.67 0 0 0 56 52.33v-36.4a.93.93 0 0 0-.93-.93zm-23.24 6.96a.94.94 0 0 0 1.26.41c.06-.03 5.55-2.82 8.26-3.68a.93.93 0 0 0-.56-1.78c-2.86.9-8.32 3.67-8.55 3.79a.94.94 0 0 0-.4 1.26zm0 11.2c.17.32.5.51.84.51.14 0 .29-.04.42-.11.06-.02 5.55-2.81 8.26-3.67a.93.93 0 0 0-.56-1.78c-2.86.9-8.32 3.67-8.55 3.79a.94.94 0 0 0-.4 1.26zm-9.22-14.84c-5.76-1.35-12.31.37-12.59.45a.93.93 0 0 0 .25 1.83l.24-.03c.06-.02 6.37-1.68 11.68-.43a.94.94 0 0 0 .42-1.82zm0 5.6c-5.76-1.35-12.31.37-12.59.45a.93.93 0 0 0 .25 1.83l.24-.03c.06-.02 6.37-1.68 11.68-.43a.94.94 0 0 0 .42-1.82zm9.22 14.84a.94.94 0 0 0 1.26.41c.06-.03 5.55-2.82 8.26-3.68a.93.93 0 0 0-.56-1.78c-2.86.9-8.32 3.67-8.55 3.79a.94.94 0 0 0-.4 1.26zm-9.22-9.24c-5.76-1.35-12.31.37-12.59.45a.93.93 0 0 0 .25 1.83l.24-.03c.06-.02 6.37-1.68 11.68-.43a.93.93 0 1 0 .43-1.82zm0 11.2c-5.76-1.35-12.31.37-12.59.45a.93.93 0 0 0 .25 1.83l.24-.03c.06-.02 6.37-1.68 11.68-.43a.93.93 0 1 0 .43-1.82zm0-5.6c-5.76-1.35-12.31.37-12.59.45a.93.93 0 0 0 .25 1.83l.24-.03c.06-.02 6.37-1.68 11.68-.43a.93.93 0 1 0 .43-1.82z"/></svg>