<svg xmlns="http://www.w3.org/2000/svg" width="68" height="59" viewBox="0 0 68 59"><path fill="#fff" d="M63.66 4.4V1.07c0-.59-.49-1.07-1.09-1.07H38.34C36.57 0 34.99.85 34 2.15A5.46 5.46 0 0 0 29.66 0H5.43c-.6 0-1.09.48-1.09 1.07V4.4A5.4 5.4 0 0 0 0 9.67V46.9a5.4 5.4 0 0 0 5.43 5.37h23.25a5.42 5.42 0 0 0 10.64 0h7.7c.6 0 1.09-.48 1.09-1.07 0-.59-.48-1.07-1.08-1.07h-8.69c-.6 0-1.08.48-1.08 1.07A3.24 3.24 0 0 1 34 54.42a3.24 3.24 0 0 1-3.25-3.22c0-.59-.5-1.07-1.1-1.07H5.44a3.25 3.25 0 0 1-3.26-3.23V9.67c0-1.4.9-2.6 2.17-3.04v35.98c0 .59.49 1.07 1.09 1.07h24.23c1.8 0 3.26 1.45 3.26 3.22a5.47 5.47 0 0 0-3.26-1.07H5.43c-.6 0-1.09.48-1.09 1.07 0 .6.49 1.08 1.09 1.08h24.23c1.8 0 3.26 1.44 3.26 3.22 0 .59.48 1.07 1.08 1.07.6 0 1.09-.48 1.09-1.07a3.24 3.24 0 0 1 3.25-3.22h8.69a1.08 1.08 0 0 0 0-2.15h-8.69a5.4 5.4 0 0 0-3.25 1.08 3.25 3.25 0 0 1 3.25-3.23h11.94v13.25c0 .36.18.69.49.89.3.2.68.24 1.02.1l3.01-1.26 3.01 1.26a1.08 1.08 0 0 0 1.5-.99v-4.66h3.26c3 0 5.43-2.41 5.43-5.37V9.67a5.4 5.4 0 0 0-4.34-5.27zM32.92 42.61a5.41 5.41 0 0 0-3.26-1.08H6.5V2.15h23.15c1.8 0 3.26 1.44 3.26 3.22zm24.23 12.7l-1.93-.8a1.03 1.03 0 0 0-.84 0l-1.93.8V43.68h4.7zm-22.07-12.7V5.37a3.24 3.24 0 0 1 3.26-3.22h23.15v39.38H38.34a5.4 5.4 0 0 0-3.26 1.08zm30.75 4.29a3.25 3.25 0 0 1-3.26 3.23h-3.25v-2.15h3.25c.6 0 1.09-.48 1.09-1.08 0-.59-.49-1.07-1.09-1.07h-3.25v-2.15h3.25c.6 0 1.09-.48 1.09-1.07V6.63a3.23 3.23 0 0 1 2.17 3.04V46.9zM28.21 32.94h-17c-.6 0-1.08.48-1.08 1.07 0 .6.48 1.08 1.08 1.08h17c.6 0 1.09-.48 1.09-1.08 0-.59-.49-1.07-1.09-1.07zm0-6.09h-17a1.08 1.08 0 0 0 0 2.15h17c.6 0 1.09-.48 1.09-1.07 0-.6-.49-1.08-1.09-1.08zm0-6.08h-17c-.6 0-1.08.48-1.08 1.07 0 .59.48 1.07 1.08 1.07h17c.6 0 1.09-.48 1.09-1.07 0-.59-.49-1.07-1.09-1.07zm0-6.09h-17c-.6 0-1.08.48-1.08 1.07 0 .6.48 1.08 1.08 1.08h17c.6 0 1.09-.48 1.09-1.08 0-.59-.49-1.07-1.09-1.07zm0-6.09h-17a1.08 1.08 0 0 0 0 2.15h17c.6 0 1.09-.48 1.09-1.07 0-.6-.49-1.08-1.09-1.08zM56.8 32.94h-17c-.6 0-1.09.48-1.09 1.07 0 .6.49 1.08 1.09 1.08h17c.6 0 1.08-.48 1.08-1.08 0-.59-.48-1.07-1.08-1.07zm0-15.22c.6 0 1.08-.48 1.08-1.07V9.67c0-.6-.48-1.08-1.08-1.08h-17c-.6 0-1.09.48-1.09 1.08v18.26c0 .59.49 1.07 1.09 1.07h17c.6 0 1.08-.48 1.08-1.07v-6.98a1.08 1.08 0 1 0-2.17 0v5.9H40.87V10.74H55.7v5.91c0 .59.49 1.07 1.09 1.07z"/></svg>