<svg xmlns="http://www.w3.org/2000/svg" width="24" height="50" viewBox="0 0 24 50"><path d="M23 0H1a1 1 0 0 0-1 1v47a1 1 0 0 0 1 1c.23 0 .45-.07.63-.22l11-8.64c.43-.34.5-.97.16-1.4-.35-.43-.98-.5-1.42-.16l-9.36 7.36V1.99H22v43.95l-4.5-3.53a1.02 1.02 0 0 0-1.41.16.99.99 0 0 0 .16 1.4l6.13 4.81A1 1 0 0 0 24 48V1a1 1 0 0 0-1-1zM4.52 5.94h14.94a1 1 0 1 0 0-1.99H4.53a1 1 0 0 0 0 1.99zm0 3.93h14.94a1 1 0 0 0 1-.99 1 1 0 0 0-1-1H4.53a1 1 0 0 0-1 1 1 1 0 0 0 1 .99zm10.5 1.94H4.52a1 1 0 0 0-1 1 1 1 0 0 0 1 .99h10.5a1 1 0 0 0 1-.99 1 1 0 0 0-1-1z"/></svg>