<svg xmlns="http://www.w3.org/2000/svg" width="65" height="47" viewBox="0 0 65 47"><path d="M57.35 21.16c-2.21-1.09-6.36-1.11-6.54-1.11a.95.95 0 0 0-.95.94c0 .52.43.94.95.94 1.07 0 4.18.16 5.69.9a.96.96 0 0 0 1.28-.41.93.93 0 0 0-.43-1.26zm4.74 13.35l-3.93-1.11a.4.4 0 0 1-.29-.37v-1.3a6.85 6.85 0 0 0 3.05-5.72v-1.79l.39-.75a5.9 5.9 0 0 0 .64-2.66v-4.83a.95.95 0 0 0-.96-.94h-9.16a6 6 0 0 0-6.04 5.95v.06c0 .76.18 1.53.53 2.21l.49.96v1.53a7.28 7.28 0 0 0 3.05 5.92v1.36c0 .2 0 .29-.78.51l-1.92.54-5.55-1.99a.91.91 0 0 0-.26-.71l-1.78-1.84v-3.08a10.95 10.95 0 0 0 4.07-8.48v-2.46a10.67 10.67 0 0 0 1.02-4.55V.94a.95.95 0 0 0-.95-.94H29.46a9.04 9.04 0 0 0-9.1 8.96v2.01c0 1.57.34 3.11 1.02 4.55v2.12c0 3.51 1.58 6.67 4.07 8.75v3.15l-1.77 1.84a.92.92 0 0 0-.26.71l-5.86 2.1c-.42.15-.82.36-1.18.61l-.92-.45c2.74-1.18 3.6-2.83 3.65-2.91a.93.93 0 0 0 0-.84c-.69-1.35-.77-3.83-.84-5.82-.02-.66-.04-1.29-.08-1.85-.32-4.5-3.8-7.89-8.07-7.89-4.28 0-7.76 3.39-8.08 7.89-.04.56-.06 1.19-.08 1.85-.07 1.99-.15 4.47-.84 5.82a.92.92 0 0 0 0 .84c.04.08.9 1.73 3.65 2.9L2.22 35.6A3.93 3.93 0 0 0 0 39.13v6.93c0 .52.43.94.95.94.53 0 .95-.42.95-.94v-6.93c0-.79.45-1.5 1.17-1.85l3.18-1.57 1.1 1.04a4.05 4.05 0 0 0 5.52 0l1.11-1.04 1.04.52a4.87 4.87 0 0 0-.77 2.61v7.22c0 .52.43.94.96.94.52 0 .95-.42.95-.94v-7.22c0-1.28.82-2.44 2.05-2.88l6.18-2.22 2.57 3.8c.33.49.85.8 1.44.86l.2.01a2 2 0 0 0 1.4-.57l1.56-1.55v9.77c0 .52.43.94.95.94.53 0 .95-.42.95-.94v-9.77l1.57 1.55a2 2 0 0 0 1.4.57l.19-.01a1.97 1.97 0 0 0 1.45-.86l2.57-3.8 6.17 2.22a3.08 3.08 0 0 1 2.06 2.88v7.22c0 .52.42.94.95.94s.95-.42.95-.94v-7.22c0-1.3-.52-2.52-1.4-3.43l.23-.06c.24-.07.56-.16.88-.32l2.44 2.4v8.63c0 .52.42.94.95.94.52 0 .95-.42.95-.94v-8.63l2.41-2.38c.13.06.27.12.4.16l3.94 1.1c.9.26 1.53 1.07 1.53 1.99v7.76c0 .52.42.94.95.94.52 0 .95-.42.95-.94V38.3c0-1.75-1.2-3.31-2.9-3.79zM6.11 32.85a6.83 6.83 0 0 1-3.06-1.93c.26-.67.43-1.44.55-2.25a7.06 7.06 0 0 0 2.5 3.06zm5.45 2.54c-.8.76-2.08.76-2.9 0l-.88-.83c.15-.27.23-.59.23-.91v-1a7.28 7.28 0 0 0 4.2 0v1c0 .32.09.64.24.91zm-1.44-4.3a5.12 5.12 0 0 1-5.16-5.08.95.95 0 0 0-.95-.94l-.16.01v-.24c.03-.64.05-1.25.09-1.78.12-1.68.8-3.23 1.92-4.37a5.94 5.94 0 0 1 4.26-1.77c1.6 0 3.12.63 4.25 1.77a6.94 6.94 0 0 1 1.92 4.37c.04.53.06 1.14.08 1.78v.17a8.6 8.6 0 0 0-4.7-3.39c-1.9-.6-3.55-.56-3.62-.56a1 1 0 0 0-.66.28L5.68 23.1a.93.93 0 0 0 .02 1.33c.38.36.98.34 1.35-.03l1.43-1.46c1.23.06 5.19.51 6.73 3.86a5.12 5.12 0 0 1-5.1 4.29zm4 1.77v-1.12a6.96 6.96 0 0 0 2.51-3.06c.12.81.29 1.57.55 2.24a6.92 6.92 0 0 1-3.06 1.94zm9.16-15.22v-2.33a.88.88 0 0 0-.1-.4 8.9 8.9 0 0 1-.91-3.94V8.96a7.14 7.14 0 0 1 7.19-7.08h13.3v9.09a8.9 8.9 0 0 1-.92 3.94.88.88 0 0 0-.1.4v2.67a8.96 8.96 0 0 1-3.65 7.25l-.02.01a9.2 9.2 0 0 1-6.17 1.81 9.34 9.34 0 0 1-8.62-9.41zm5.36 18.87c0 .01-.02.02-.05.02a.05.05 0 0 1-.05-.03l-2.96-4.37.95-.99 4.5 3.02zm3.87-3.62l-5.15-3.47v-1.75c1.33.71 2.82 1.16 4.41 1.26l.75.02c1.82 0 3.58-.43 5.15-1.24v1.71zm3.97 3.61c0 .01-.02.03-.05.03-.03 0-.04-.01-.05-.02L34 34.17l4.49-3.03.95.99zm17.39-.79l-2.16-2.13c.03-.17.06-.35.05-.55v-.4c.6.19 1.24.31 1.9.33h.21c.72 0 1.43-.11 2.1-.31v.38c0 .18.02.37.07.54zm3.59-6.06a5.1 5.1 0 0 1-3.75 1.43 5.28 5.28 0 0 1-5-5.33V24a.93.93 0 0 0-.1-.42l-.59-1.16c-.21-.42-.33-.9-.33-1.37v-.06a4.11 4.11 0 0 1 4.14-4.07h8.21v3.89a4.1 4.1 0 0 1-.43 1.83l-.49.94a.95.95 0 0 0-.1.42v2.01a5 5 0 0 1-1.56 3.64zm2.52 9.46a.95.95 0 0 0-.96.94v6.01c0 .52.43.94.96.94.52 0 .95-.42.95-.94v-6.01a.95.95 0 0 0-.95-.94zM5.02 40.35a.94.94 0 0 0-.95.93v4.78c0 .52.43.94.95.94.53 0 .96-.42.96-.94v-4.78a.94.94 0 0 0-.96-.93zm35.3-29.05c-3.6-3.54-11.14-2.86-14.22-2.41-.96.15-1.67.95-1.67 1.92v2.16c0 .52.43.94.96.94.52 0 .95-.42.95-.94v-2.16c0-.03.02-.06.05-.06 1.23-.19 3.66-.47 6.18-.3 2.97.19 5.12.93 6.4 2.18.37.37.97.37 1.34 0a.93.93 0 0 0 0-1.33zm-19 29.81a.95.95 0 0 0-.96.94v4.01c0 .52.43.94.95.94.53 0 .96-.42.96-.94v-4.01a.95.95 0 0 0-.96-.94zm22.4 0a.95.95 0 0 0-.96.94v4.01c0 .52.43.94.95.94.53 0 .95-.42.95-.94v-4.01a.95.95 0 0 0-.95-.94z"/></svg>