<svg xmlns="http://www.w3.org/2000/svg" width="47" height="44" viewBox="0 0 47 44"><path d="M33.09 39.31a.78.78 0 0 0-.95.57l-.78 3.14c-.1.43.15.85.57.96l.19.02c.35 0 .67-.24.76-.59l.78-3.15a.78.78 0 0 0-.57-.95zM23.5 23.57c.1 0 .2-.02.3-.06l8.62-3.57a.8.8 0 0 0 .42-1.03.8.8 0 0 0-1.02-.43l-8.32 3.46-21.93-9.11v-.26a.78.78 0 0 0-1.57 0v.79c0 .32.2.6.48.72l22.72 9.43c.1.04.2.06.3.06zm9.32 8.05a.78.78 0 0 0-1.05-.36 18.2 18.2 0 0 1-7.49 1.72v-7.05a.78.78 0 1 0-1.56 0v7.04c-9.73-.31-12.87-6.22-13.32-7.2v-5.34a.78.78 0 1 0-1.57 0v5.5c0 .1.02.2.06.29.13.34 3.47 8.35 15.61 8.35 4.24 0 7.22-1.03 8.96-1.9a.78.78 0 0 0 .36-1.05zm2.43 8.45a.78.78 0 0 0-.78.79v2.35a.78.78 0 1 0 1.56 0v-2.35a.78.78 0 0 0-.78-.79zm10.97-28.28a.78.78 0 0 0-.79.78v.26l-9.4 3.88v-1.42l10.49-4.35a.79.79 0 0 0 0-1.45L23.8.06a.78.78 0 0 0-.6 0L.48 9.49a.78.78 0 0 0 0 1.45l22.72 9.43a.77.77 0 0 0 .6 0L32 16.96a.8.8 0 0 0 .43-1.03.78.78 0 0 0-1.02-.42l-7.92 3.28-20.67-8.58L23.5 1.64l20.67 8.57-9 3.74-8.6-3.23c.04-.16.06-.33.06-.51 0-1.32-1.37-2.35-3.13-2.35-1.76 0-3.13 1.03-3.13 2.35 0 1.33 1.37 2.36 3.13 2.36.78 0 1.48-.21 2.03-.56l8.94 3.35v19.36a2.35 2.35 0 1 0 1.56 0v-4.46a9.59 9.59 0 0 0 3.1-4.07.82.82 0 0 0 .04-.26v-5.5a.8.8 0 0 0-.79-.79.79.79 0 0 0-.78.79v5.35c-.14.34-.6 1.36-1.57 2.38v-9.75l10.49-4.33c.29-.12.48-.4.48-.72v-.79a.78.78 0 0 0-.78-.78zM23.5 11c-.96 0-1.57-.47-1.57-.79 0-.32.61-.78 1.57-.78.96 0 1.57.46 1.57.78s-.61.79-1.57.79zm11.75 26.71a.78.78 0 0 1-.78-.78.8.8 0 0 1 .78-.79.8.8 0 0 1 .78.79c0 .43-.35.78-.78.78zm3.11 2.17a.78.78 0 1 0-1.52.38l.78 3.15c.1.35.41.59.76.59l.2-.02a.8.8 0 0 0 .56-.96z"/></svg>