<svg xmlns="http://www.w3.org/2000/svg" width="46" height="37" viewBox="0 0 46 37"><path d="M44.9 10.77c-.06-.11-1.6-2.7-4.08-5.34C37.42 1.83 34.04 0 30.76 0h-2.85c-.4 0-.71.32-.71.72A4.22 4.22 0 0 1 23 4.96c-2.32 0-4.2-1.9-4.2-4.24 0-.4-.32-.72-.71-.72h-2.85C11.96 0 8.57 1.83 5.18 5.43a33.22 33.22 0 0 0-4.08 5.34.73.73 0 0 0-.09.49c.02.12.56 3.04 4.82 6.16a.7.7 0 0 0 .82.01l3.1-2.18h.01l.27-.19c-.09 3.62-.31 13.42-.31 21.22 0 .4.32.72.71.72h25.14c.4 0 .71-.32.71-.72 0-7.8-.22-17.6-.31-21.22l.27.19 3.1 2.18a.7.7 0 0 0 .83-.01c4.26-3.12 4.8-6.04 4.82-6.16a.73.73 0 0 0-.09-.49zM6.26 15.95c-2.74-2.13-3.57-4.05-3.78-4.7.2-.32.59-.91 1.13-1.66.69 1.3 2.02 3.11 4.53 5.05zm33.48 0l-1.88-1.31c.66-.51 1.26-1.03 1.81-1.56a.72.72 0 0 0-.99-1.04c-.6.59-1.3 1.17-2.05 1.73l-1-.7a.71.71 0 0 0-1.12.61c0 .13.33 12.29.34 21.88h-23.7c.01-9.59.34-21.75.34-21.88a.71.71 0 1 0-1.12-.61l-1 .7c-3.1-2.3-4.33-4.39-4.8-5.45 2.24-2.79 5.9-6.47 9.99-6.85.13 1.5.64 2.92 1.5 4.16a.7.7 0 0 0 1 .17c.31-.23.4-.67.17-1-.7-1-1.12-2.15-1.24-3.36h1.43A5.65 5.65 0 0 0 23 6.4a5.65 5.65 0 0 0 5.58-4.96H30A7.09 7.09 0 0 1 23 7.84c-1.48 0-2.9-.46-4.1-1.33a.7.7 0 0 0-1 .17.72.72 0 0 0 .17 1A8.33 8.33 0 0 0 23 9.28a8.52 8.52 0 0 0 8.44-7.81c4.08.38 7.75 4.06 9.99 6.85-.19.42-.42.86-.73 1.32a.73.73 0 0 0 .2 1c.13.08.26.12.4.12.23 0 .46-.12.6-.33.18-.28.35-.56.5-.84.53.75.92 1.34 1.12 1.66-.22.66-1.04 2.57-3.78 4.7z"/></svg>