<svg xmlns="http://www.w3.org/2000/svg" width="43" height="43" viewBox="0 0 43 43"><path d="M28.44 37.45v-1.39h1.38V31.9h-1.38v-1.38h2.77v-6.25h-5.77l8.04-6.96a3.48 3.48 0 0 0 1.2-2.62v-2.78l.66-.56c.46-.4.73-.98.73-1.58V4.86a3.47 3.47 0 0 0-3.47-3.47H16.65v1.38h-2.78V0H3.3L0 1.65v2.51h5.55v1.39H0v2.51l3.3 1.65h10.57V6.94h2.78v1.38h9.97L14.91 18.8a4.62 4.62 0 0 0-2.46 7.81l3.9 3.91h2.38v1.38h-1.4v4.16h1.4v1.39H11.1V43H43v-5.55zM8.32 8.32H3.63L1.4 7.2v-.26h5.55V2.77H1.39v-.26l2.24-1.12h4.7zm4.16 0H9.71V1.39h2.77zm4.16-2.77h-2.77V4.16h2.77zm11.8 29.13h-1.4v-1.39h1.4zm-1.4 1.38v1.39h-6.93v-1.39zm-5.54-1.38v-1.39h1.39v1.39zm2.77 0v-1.39h1.4v1.39zm-4.16-2.78v-1.38h6.94v1.38zM33.3 14.69c0 .6-.26 1.17-.72 1.57l-9.25 8.01h-.15l-1.34-1.34 11.46-9.83zM19.42 6.94h-1.39V2.77h1.39zm1.39 0V2.77H32.6c1.14 0 2.08.94 2.08 2.09v2.08zm7.89 1.38h5.98v1.45c0 .2-.1.39-.24.52l-13.6 11.65-1.86-1.86a4.6 4.6 0 0 0-2.08-1.2zM16.93 29.13l-3.5-3.5A3.23 3.23 0 0 1 18 21.06l4.6 4.6h7.22v3.47zm1.8 4.16h1.38v1.39h-1.38zm22.88 8.32h-1.38v-1.38h-1.4v1.38h-1.38v-1.38h-1.38v1.38h-1.4v-1.38H33.3v1.38H31.9v-1.38h-1.38v1.38h-1.4v-1.38h-1.38v1.38h-1.38v-1.38h-1.4v1.38h-1.38v-1.38H22.2v1.38h-1.38v-1.38h-1.4v1.38h-1.38v-1.38h-1.38v1.38h-1.4v-1.38h-1.38v1.38h-1.39v-2.77h29.13zm-26-20.11a1.74 1.74 0 1 0 0 3.47 1.74 1.74 0 0 0 0-3.47zm0 2.08a.35.35 0 0 1-.35-.35c0-.19.15-.34.35-.34.19 0 .34.15.34.34 0 .19-.15.35-.34.35z"/></svg>