<svg xmlns="http://www.w3.org/2000/svg" width="42" height="42" viewBox="0 0 42 42"><path d="M30.1 39.2H10.5a.7.7 0 0 0-.7.7v1.4c0 .39.31.7.7.7a.7.7 0 0 0 .7-.7v-.7h18.9a.7.7 0 0 0 .7-.7.7.7 0 0 0-.7-.7zm-14-21h2.8a.7.7 0 0 0 .7-.7v-4.2a.7.7 0 0 0-.7-.7h-2.8a.7.7 0 0 0-.7.7v4.2c0 .39.31.7.7.7zm.7-4.2h1.4v2.8h-1.4zM9.1 8.4H.7a.7.7 0 0 0-.7.7v14c0 .39.31.7.7.7a.7.7 0 0 0 .7-.7V9.8h7.7a.7.7 0 0 0 .7-.7.7.7 0 0 0-.7-.7zm24.5 25.9c0 .39.31.7.7.7h2.8a.7.7 0 0 0 .7-.7v-4.2a.7.7 0 0 0-.7-.7h-2.8a.7.7 0 0 0-.7.7zm1.4-3.5h1.4v2.8H35zM3.5 25.2C.04 25.2 0 34.21 0 34.3c0 1.69 1.2 3.1 2.8 3.43v3.57c0 .39.31.7.7.7a.7.7 0 0 0 .7-.7v-3.57A3.51 3.51 0 0 0 7 34.3c0-.09-.04-9.1-3.5-9.1zm0 11.2a2.1 2.1 0 0 1-2.1-2.1c0-3.49.94-7.7 2.1-7.7 1.16 0 2.1 4.21 2.1 7.7a2.1 2.1 0 0 1-2.1 2.1zM7.7 21H4.9a.7.7 0 0 0-.7.7v1.4c0 .39.31.7.7.7a.7.7 0 0 0 .7-.7v-.7H7v3.5c0 .39.31.7.7.7a.7.7 0 0 0 .7-.7v-4.2a.7.7 0 0 0-.7-.7zm26.6-2.8h2.8a.7.7 0 0 0 .7-.7v-4.2a.7.7 0 0 0-.7-.7h-2.8a.7.7 0 0 0-.7.7v4.2c0 .39.31.7.7.7zM35 14h1.4v2.8H35zM7.7 12.6H4.9a.7.7 0 0 0-.7.7v4.2c0 .39.31.7.7.7h2.8a.7.7 0 0 0 .7-.7v-4.2a.7.7 0 0 0-.7-.7zm-2.1 4.2V14H7v2.8zm17.5 1.4h2.8a.7.7 0 0 0 .7-.7v-4.2a.7.7 0 0 0-.7-.7h-2.8a.7.7 0 0 0-.7.7v4.2c0 .39.31.7.7.7zm2.1-4.2v2.8h-1.4V14zm16.1-5.6h-8.4a.7.7 0 0 0-.7.7c0 .39.31.7.7.7h7.7v28.13a2.04 2.04 0 0 0-1.06-.1 2.78 2.78 0 0 0-2.44-1.43c-1.04 0-1.96.56-2.44 1.43A2.1 2.1 0 1 0 34.3 42h5.6a2.1 2.1 0 0 0 2.1-2.1V9.1a.7.7 0 0 0-.7-.7zm-1.4 32.2h-5.6a.7.7 0 0 1-.7-.7.7.7 0 0 1 1.08-.59c.2.13.43.15.64.06a.68.68 0 0 0 .42-.49 1.4 1.4 0 0 1 2.72 0c.05.23.2.41.42.49.2.09.45.07.64-.06.46-.29 1.08.07 1.08.59a.7.7 0 0 1-.7.7zM23.1 9.8h2.8a.7.7 0 0 0 .7-.7V4.9a.7.7 0 0 0-.7-.7h-2.8a.7.7 0 0 0-.7.7v4.2c0 .39.31.7.7.7zm2.1-4.2v2.8h-1.4V5.6zm-2.1 21h2.8a.7.7 0 0 0 .7-.7v-4.2a.7.7 0 0 0-.7-.7h-2.8a.7.7 0 0 0-.7.7v4.2c0 .39.31.7.7.7zm2.1-4.2v2.8h-1.4v-2.8zM16.1 9.8h2.8a.7.7 0 0 0 .7-.7V4.9a.7.7 0 0 0-.7-.7h-2.8a.7.7 0 0 0-.7.7v4.2c0 .39.31.7.7.7zm.7-4.2h1.4v2.8h-1.4zm3.7 28.2a.76.76 0 0 0-.2.5c0 .18.08.36.2.5.14.12.32.2.5.2s.36-.08.5-.2c.12-.14.2-.32.2-.5a.76.76 0 0 0-.2-.5.73.73 0 0 0-1 0zm-4.4-7.2h2.8a.7.7 0 0 0 .7-.7v-4.2a.7.7 0 0 0-.7-.7h-2.8a.7.7 0 0 0-.7.7v4.2c0 .39.31.7.7.7zm.7-4.2h1.4v2.8h-1.4zM14 30.1c0 .39.31.7.7.7h2.1v6.3c0 .39.31.7.7.7a.7.7 0 0 0 .7-.7v-6.3h5.6v6.3c0 .39.31.7.7.7a.7.7 0 0 0 .7-.7v-6.3h2.1a.7.7 0 0 0 .7-.7.7.7 0 0 0-.7-.7H14.7a.7.7 0 0 0-.7.7zm19.6-4.2c0 .39.31.7.7.7h2.8a.7.7 0 0 0 .7-.7v-4.2a.7.7 0 0 0-.7-.7h-2.8a.7.7 0 0 0-.7.7zm1.4-3.5h1.4v2.8H35zM30.1 0H11.9a.7.7 0 0 0-.7.7v36.4c0 .39.31.7.7.7a.7.7 0 0 0 .7-.7V1.4h16.8v35.7c0 .39.31.7.7.7a.7.7 0 0 0 .7-.7V.7a.7.7 0 0 0-.7-.7z"/></svg>