<svg xmlns="http://www.w3.org/2000/svg" width="41" height="41" viewBox="0 0 41 41"><path d="M30.55 14.94a.68.68 0 0 0 .87-.43.68.68 0 0 0-.44-.86 11.6 11.6 0 0 0-1.46-.39.7.7 0 0 0-.81.54c-.07.36.17.73.54.8.44.09.88.2 1.3.34zM12.18 29.39c-.64.12-1.47.33-1.81.68a1.35 1.35 0 0 0 0 1.93 1.35 1.35 0 0 0 1.93 0c.35-.35.56-1.17.67-1.81a.7.7 0 0 0-.19-.61.7.7 0 0 0-.6-.19zm-.85 2.33l-.03-.66.03-.02zm25.22-10.37a.7.7 0 0 0 .83.5.7.7 0 0 0 .5-.83 10.24 10.24 0 0 0-4-5.93.69.69 0 0 0-.96.17c-.21.3-.14.73.17.95a8.79 8.79 0 0 1 3.46 5.14zM6.15 24.6c.38 0 .68-.3.68-.68 0-6.26 3-10.06 9.42-11.96a.68.68 0 0 0 .46-.85.67.67 0 0 0-.84-.46c-7 2.06-10.4 6.4-10.4 13.27 0 .38.3.68.68.68zm9 5.76c-.36.53-.8 1.27-.8 1.76a1.36 1.36 0 0 0 2.73 0c0-.49-.43-1.23-.8-1.76-.26-.37-.87-.37-1.13 0zm4.11-.97a.7.7 0 0 0-.8.8c.12.63.33 1.46.67 1.81.26.26.6.4.97.4s.71-.14.97-.4c.25-.26.4-.6.4-.97 0-.36-.15-.7-.4-.96-.35-.35-1.18-.56-1.81-.68zm12.17-2.74c0-.38-.3-.68-.68-.68H18.94a.7.7 0 0 0-.59.34.7.7 0 0 1-.97.22.65.65 0 0 0-.59-.08.69.69 0 0 0-.43.42.69.69 0 0 1-.64.46.67.67 0 0 1-.64-.46.69.69 0 0 0-1.03-.34c-.31.22-.77.11-.97-.22a.68.68 0 0 0-.59-.34H.68c-.37 0-.68.3-.68.68C0 34.56 7.05 41 15.72 41c8.66 0 15.71-6.44 15.71-14.35zM15.72 39.63c-7.66 0-13.94-5.45-14.33-12.3h10.76c.49.55 1.28.8 2 .63a2.03 2.03 0 0 0 3.14 0 2.1 2.1 0 0 0 2-.63h10.76c-.4 6.85-6.67 12.3-14.33 12.3zm11.61-29.38c-1.27 0-2.54.25-3.36.45.48-4.39 4.35-6.67 4.39-6.69a.69.69 0 0 0-.68-1.19c-.16.1-3.13 1.84-4.47 5.31-.46-1.63-1.17-3.46-2.23-4.51a12.16 12.16 0 0 0-8-3.62.69.69 0 0 0-.68.68c0 .21.03 5.1 2.93 8a12.2 12.2 0 0 0 8 3.62h.02c.07-.01.14-.01.2-.03.02-.01 1.97-.65 3.88-.65 5.93 0 12.3 3.85 12.3 12.3 0 8.37-5.11 15.71-10.93 15.71-.36 0-1.47 0-2.61-.2a.7.7 0 0 0-.8.55.7.7 0 0 0 .56.8c1.26.22 2.46.22 2.85.22C35.37 41 41 33.18 41 23.92c0-9.39-7.08-13.67-13.67-13.67zM16.2 7.72c-1.88-1.88-2.36-4.9-2.49-6.29 1.27.18 3.97.82 6.31 3.15 1.4 1.41 2.13 4.71 2.4 6.28-1.3-.2-3.94-.86-6.22-3.14z"/></svg>