<svg xmlns="http://www.w3.org/2000/svg" width="45" height="48" viewBox="0 0 45 48"><path d="M38.5 36.19a.77.77 0 0 0-1.04.31l-.13.25h-3.06c.34-.91.62-1.85.86-2.83a.75.75 0 0 0-.57-.9.75.75 0 0 0-.92.56c-.26 1.09-.6 2.16-1.01 3.17h-5.86c.42-2.61.65-5.44.68-8.25h3.82c.42 0 .76-.34.76-.75a.76.76 0 0 0-.76-.75h-3.82a56.73 56.73 0 0 0-.8-9h5.67c.35.78.66 1.61.92 2.47a.76.76 0 0 0 .96.5c.4-.12.63-.54.5-.94-.21-.7-.46-1.38-.73-2.03h2.91l.23.37c.14.25.4.38.66.38a.75.75 0 0 0 .66-1.13l-.3-.5a.75.75 0 0 0-.32-.49 20.67 20.67 0 0 0-21.97-8.59.75.75 0 1 0 .35 1.46c.5-.11 1-.21 1.5-.28-1.24 1.61-2.2 4.23-2.86 7.28H8.57a.7.7 0 0 0-.36 0H5.34l.58-.73a.75.75 0 0 0-.1-1.06.78.78 0 0 0-1.07.1c-.5.58-.95 1.19-1.37 1.82a.76.76 0 0 0-.32.5 20.03 20.03 0 0 0 2.97 24.94A20.65 20.65 0 0 0 20.6 48c7.66 0 14.64-4.14 18.22-10.8a.74.74 0 0 0-.32-1.01zm-6.54 2.06c-.9 1.79-2.01 3.38-3.3 4.66-1.5 1.5-3.2 2.55-4.97 3.11 1.24-1.75 2.18-4.53 2.82-7.77zm-5.6-21.75c-.64-2.92-1.53-5.4-2.67-7.02 3.15 1 5.94 3.48 7.89 7.02zm3.9-4.91a19 19 0 0 1 5.59 4.91h-2.56a18.45 18.45 0 0 0-4.07-5.47c.35.17.7.36 1.04.56zm-12.85 1.43C18.35 10.5 19.54 9 20.59 9c1.23 0 2.57 1.94 3.59 5.18.23.73.43 1.5.62 2.32h-8.4c.28-1.28.62-2.46 1-3.48zm-2.85 11.73c.42.02.78-.29.8-.71.14-2.14.38-4.18.72-6.04h9.02c.5 2.71.79 5.78.83 9h-3.81a.76.76 0 0 0-.76.75c0 .41.34.75.76.75h3.8a54.8 54.8 0 0 1-.68 8.25h-3.12a.76.76 0 0 0-.76.75c0 .41.34.75.76.75h2.84a32.07 32.07 0 0 1-.78 3.07c-1.02 3.24-2.36 5.18-3.59 5.18-1.03 0-2.16-1.38-3.1-3.8a.77.77 0 0 0-.98-.43.75.75 0 0 0-.44.97c.46 1.19.95 2.1 1.44 2.78-3.43-1.08-6.37-3.91-8.29-7.77.4-.04.7-.36.7-.75a.76.76 0 0 0-.77-.75h-.6c-.99-2.47-1.59-5.27-1.67-8.25h1.51c.42 0 .76-.34.76-.75A.76.76 0 0 0 8.4 27H6.88c.09-3.19.77-6.28 2-9h5.66a52.66 52.66 0 0 0-.7 5.95c-.02.42.3.77.72.8zM1.54 28.5h3.81c.08 2.91.62 5.71 1.57 8.25H3.87a18.4 18.4 0 0 1-2.33-8.25zM7.22 18a25.45 25.45 0 0 0-1.87 9h-3.8a18.57 18.57 0 0 1 2.76-9zM4.8 38.25h2.74a20.58 20.58 0 0 0 2.19 3.73c.7.93 1.44 1.76 2.24 2.49a19.16 19.16 0 0 1-7.17-6.22zM29.2 44.5l.56-.54a19.25 19.25 0 0 0 3.9-5.71h2.74a18.98 18.98 0 0 1-7.2 6.25zM7.95 14.86a.8.8 0 0 0 .89 0c.23-.17 5.65-4.13 5.65-8.86 0-3.31-2.74-6-6.1-6a6.06 6.06 0 0 0-6.1 6c0 4.83 5.43 8.7 5.66 8.86zM8.39 1.5A4.54 4.54 0 0 1 12.97 6c0 3.26-3.35 6.29-4.59 7.3-1.23-.99-4.57-3.98-4.57-7.3 0-2.48 2.06-4.5 4.58-4.5zM11.44 6a.76.76 0 0 0-.76-.75.76.76 0 0 0-.77.75c0 .83-.68 1.5-1.52 1.5S6.86 6.83 6.86 6s.69-1.5 1.53-1.5c.42 0 .76-.34.76-.75A.76.76 0 0 0 8.4 3a3.03 3.03 0 0 0-3.05 3c0 1.65 1.37 3 3.05 3a3.03 3.03 0 0 0 3.05-3zM38.9 20.25a6.06 6.06 0 0 0-6.1 6c0 4.83 5.42 8.7 5.66 8.86a.8.8 0 0 0 .44.14c.16 0 .32-.05.45-.15.23-.16 5.65-4.12 5.65-8.85 0-3.31-2.74-6-6.1-6zm0 13.3c-1.24-.99-4.58-3.98-4.58-7.3 0-2.48 2.05-4.5 4.58-4.5a4.54 4.54 0 0 1 4.58 4.5c0 3.26-3.36 6.29-4.59 7.3zm2.29-8.05a.76.76 0 0 0-.77.75c0 .83-.68 1.5-1.52 1.5s-1.53-.67-1.53-1.5.69-1.5 1.53-1.5c.42 0 .76-.34.76-.75a.76.76 0 0 0-.76-.75 3.03 3.03 0 0 0-3.05 3c0 1.65 1.37 3 3.05 3a3.03 3.03 0 0 0 3.05-3 .76.76 0 0 0-.76-.75zM9.15 32.25c0 4.83 5.43 8.7 5.66 8.86a.8.8 0 0 0 .44.14c.16 0 .32-.05.46-.14.23-.17 5.65-4.13 5.65-8.86 0-3.31-2.74-6-6.1-6a6.06 6.06 0 0 0-6.1 6zm6.1-4.5a4.54 4.54 0 0 1 4.58 4.5c0 3.26-3.35 6.29-4.58 7.3-1.23-.99-4.57-3.98-4.57-7.3 0-2.48 2.05-4.5 4.57-4.5zm0 7.5a3.03 3.03 0 0 0 3.06-3 .76.76 0 0 0-.77-.75.76.76 0 0 0-.76.75c0 .83-.68 1.5-1.53 1.5-.84 0-1.52-.67-1.52-1.5s.68-1.5 1.52-1.5c.43 0 .77-.34.77-.75a.76.76 0 0 0-.77-.75 3.03 3.03 0 0 0-3.05 3c0 1.65 1.37 3 3.05 3z"/></svg>