<svg xmlns="http://www.w3.org/2000/svg" width="38" height="36" viewBox="0 0 38 36"><path d="M37.37 9V0H.63v9H0v23.95A3.03 3.03 0 0 0 3 36h32c1.65 0 3-1.37 3-3.05V9zm-1.59 0L32.5 4.56l3.23-3.27h.37V9zM6.97 9V4.5l-.01-.04c0-.05-.02-.08-.03-.13l-.01-.08-.03-.03a.42.42 0 0 0-.06-.1l-.05-.08-2.72-2.75h29.88l-2.72 2.75-.05.08c-.02.03-.05.06-.06.1l-.03.03c0 .03 0 .06-.02.08l-.02.13V9zM3.8 9l1.9-2.57V9zm28.5-2.57L34.2 9h-1.9zM1.9 1.29h.37L5.5 4.56 2.22 9H1.9zm34.83 31.66c0 .97-.78 1.76-1.73 1.76H3c-.95 0-1.73-.79-1.73-1.76V10.29h35.46zM26.6 14.14a.64.64 0 0 0-.63.65v3.85c0 3.9-3.13 7.07-6.97 7.07a7.03 7.03 0 0 1-6.97-7.07v-3.85a.64.64 0 0 0-.63-.65.64.64 0 0 0-.63.65v3.85A8.3 8.3 0 0 0 19 27a8.3 8.3 0 0 0 8.23-8.36v-3.85a.64.64 0 0 0-.63-.65zm-13.93.65c0 .35.28.64.63.64s.63-.29.63-.64a2.56 2.56 0 0 0-2.53-2.58 2.56 2.56 0 0 0-2.53 2.58c0 .35.28.64.63.64s.63-.29.63-.64c0-.71.57-1.29 1.27-1.29.7 0 1.27.58 1.27 1.29zm13.93-2.58a2.56 2.56 0 0 0-2.53 2.58c0 .35.28.64.63.64s.63-.29.63-.64c0-.71.57-1.29 1.27-1.29.7 0 1.27.58 1.27 1.29 0 .35.28.64.63.64s.63-.29.63-.64a2.56 2.56 0 0 0-2.53-2.58z"/></svg>