<svg xmlns="http://www.w3.org/2000/svg" width="36" height="43" viewBox="0 0 36 43"><path d="M29.1 23.97a11.71 11.71 0 0 0 3.86-8.53c0-2.61-.93-5.05-2.52-7.07a4.62 4.62 0 0 0 1.83-3.7A4.7 4.7 0 0 0 27.55 0c-2.14 0-4 1.42-4.56 3.42a17.28 17.28 0 0 0-9.97 0A4.72 4.72 0 0 0 8.46 0a4.7 4.7 0 0 0-4.72 4.67c0 1.47.68 2.82 1.84 3.7a11.39 11.39 0 0 0-2.52 7.07c0 3.28 1.45 6.27 3.84 8.53-1.65.99-6.19 4.05-5.89 7.68.1 1.13.53 1.94 1.3 2.42.56.35 1.2.46 1.79.46.97 0 1.8-.3 1.86-.32l.06-.03c.22.46.47.9.76 1.33a3.9 3.9 0 0 0-.26 2.26c.2 1.2.85 2.4 1.83 3.37.98.97 2.2 1.61 3.4 1.8.26.04.5.06.75.06.99 0 1.85-.33 2.49-.96.35-.34.6-.76.77-1.23a15.32 15.32 0 0 0 4.5 0c.16.47.42.89.77 1.23.63.63 1.5.96 2.48.96.24 0 .5-.02.75-.06a6.35 6.35 0 0 0 3.4-1.8 6.24 6.24 0 0 0 1.83-3.37 3.9 3.9 0 0 0-.26-2.26c.3-.42.55-.87.76-1.32l.05.02c.05.02.89.32 1.86.32a3.3 3.3 0 0 0 1.79-.46c.76-.48 1.2-1.29 1.3-2.42.3-3.62-4.23-6.68-5.89-7.68zM27.56 1.26c1.9 0 3.45 1.53 3.45 3.41a3.4 3.4 0 0 1-1.4 2.74c-.33-.36-.7-.7-1.07-1.02a1.97 1.97 0 0 0-.98-3.7 2 2 0 0 0-2 1.75c-.43-.22-.88-.42-1.35-.6a3.45 3.45 0 0 1 3.35-2.58zm-.73 3.41a.73.73 0 0 1 1.45 0c0 .39-.32.72-.72.72a.73.73 0 0 1-.73-.72zm-21.8 0a3.45 3.45 0 1 1 6.8-.83c-.47.18-.93.38-1.37.6a2 2 0 0 0-1.98-1.75 1.97 1.97 0 1 0-.98 3.7c-.38.32-.74.66-1.08 1.02A3.4 3.4 0 0 1 5 4.67zm2.72 0a.73.73 0 0 1 1.45 0c0 .39-.33.72-.72.72a.73.73 0 0 1-.73-.72zm-3.4 10.77C4.33 9.11 10.46 3.95 18 3.95c7.53 0 13.67 5.16 13.67 11.49S25.54 26.93 18 26.93c-7.54 0-13.68-5.16-13.68-11.49zm1.18 17.59c-.02 0-1.6.56-2.52-.02-.42-.26-.65-.74-.71-1.46-.15-1.79 1.39-3.52 2.7-4.65.37-.32.74-.6 1.09-.86a9.29 9.29 0 0 0-.53 6.97l-.03.02zm2.68-7.98a16.4 16.4 0 0 0 9.8 3.14 16.4 16.4 0 0 0 9.81-3.14 8.31 8.31 0 0 1 1.82 5.13c0 1.48-.42 2.93-1.22 4.25a3.58 3.58 0 0 0-2.76-.78A8.96 8.96 0 0 0 18 29.62a8.96 8.96 0 0 0-7.65 4.03 3.58 3.58 0 0 0-2.76.78 8.18 8.18 0 0 1-1.22-4.25c0-1.84.63-3.6 1.82-5.13zm1.05 15.19C7.84 38.85 7.36 37 8.04 35.86l.06-.1.23-.29c.41-.4.97-.59 1.6-.59a4.8 4.8 0 0 1 3.24 1.5c1.1 1.09 1.63 2.45 1.5 3.54a.64.64 0 0 0-.03.15 2 2 0 0 1-.56 1.08c-1.08 1.07-3.24.66-4.83-.91zm6.7-.67c0-.23-.02-.47-.05-.72a6.27 6.27 0 0 0-1.83-3.37 6.85 6.85 0 0 0-2.38-1.53 7.75 7.75 0 0 1 6.32-3.07 7.75 7.75 0 0 1 6.31 3.07c-.85.32-1.68.84-2.38 1.53a6.27 6.27 0 0 0-1.82 3.37c-.04.25-.06.49-.06.72-1.35.19-2.76.19-4.1 0zm10.81.67c-1.58 1.57-3.75 1.98-4.83.91a2.02 2.02 0 0 1-.57-1.17l-.01-.06c-.14-1.09.4-2.46 1.5-3.54 1.58-1.57 3.75-1.97 4.83-.91a2.15 2.15 0 0 1 .3.38c.67 1.14.2 3-1.22 4.39zm6.95-8.69c-.06.72-.29 1.19-.7 1.46-.78.48-2.09.17-2.53.02l-.02-.01a9.23 9.23 0 0 0-.53-6.98c1.85 1.37 3.95 3.45 3.78 5.51zm-15.7-6.05c4.48 0 8.13-2.85 8.13-6.36 0-3.5-3.65-6.35-8.13-6.35-4.49 0-8.14 2.85-8.14 6.35 0 3.51 3.65 6.36 8.14 6.36zm2.08-10.06c0 .34 0 1.39-2.08 1.39-2.1 0-2.1-1.05-2.1-1.39 0-.33 0-1.32 1.89-1.38l.2-.01.21.01c1.88.06 1.88 1.05 1.88 1.38zm-5.34-.77c-.07.23-.1.49-.1.77 0 1.49 1 2.43 2.72 2.62v1.42a1.4 1.4 0 0 1-1.4 1.39 1.4 1.4 0 0 1-1.41-1.39.63.63 0 0 0-.64-.63.63.63 0 0 0-.64.63c0 1.46 1.2 2.65 2.68 2.65.82 0 1.55-.36 2.05-.94.49.58 1.22.94 2.04.94a2.67 2.67 0 0 0 2.68-2.65.63.63 0 0 0-.64-.63.63.63 0 0 0-.63.63 1.4 1.4 0 0 1-1.4 1.39 1.4 1.4 0 0 1-1.42-1.39v-1.42c1.72-.19 2.73-1.13 2.73-2.62 0-.28-.03-.54-.1-.77 2.14.86 3.6 2.54 3.6 4.47 0 2.81-3.08 5.09-6.86 5.09-3.78 0-6.86-2.28-6.86-5.09 0-1.93 1.46-3.61 3.6-4.47zm-3.56-.62c.35 0 .64-.28.64-.63v-.67a.63.63 0 0 0-.64-.63.63.63 0 0 0-.64.63v.67c0 .35.29.63.64.63zm13.63 0c.35 0 .64-.28.64-.63v-.67a.63.63 0 0 0-.64-.63.63.63 0 0 0-.64.63v.67c0 .35.29.63.64.63z"/></svg>