<svg xmlns="http://www.w3.org/2000/svg" width="42" height="42" viewBox="0 0 42 42"><path d="M41.3 14h-21c-.42 0-.7.28-.7.7v26.6c0 .42.28.7.7.7h21c.42 0 .7-.28.7-.7V14.7c0-.42-.28-.7-.7-.7zm-.7 1.4v4.2H21v-1.4h8.4v-1.4H21v-1.4zM21 40.6V21h19.6v19.6zM27 24v-2h-2v2zm3 0v-2h-2v2zm4 0v-2h-2v2zm3 0v-2h-2v2zm-11 3v-1h-3v1zm4 0v-1h-3v1zm4 0v-1h-2v1zm5 0v-1h-3v1zm-13 3v-1h-3v1zm4 0v-1h-3v1zm4 0v-1h-2v1zm5 0v-1h-3v1zm-13 3v-1h-3v1zm4 0v-1h-3v1zm4 0v-1h-2v1zm5 0v-1h-3v1zm-13 3v-2h-3v2zm4 0v-2h-3v2zm4 0v-2h-2v2zm5 0v-2h-3v2zm-13 3v-2h-3v2zm4 0v-2h-3v2zm4 0v-2h-2v2zm5 0v-2h-3v2zM1.4 9.8h7.7c.42 0 .7-.28.7-.7V1.4h23.8v9.8H35V.7c0-.42-.28-.7-.7-.7H9.1c-.07 0-.14 0-.21.07h-.07c-.07.07-.14.07-.21.14l-8.4 8.4c-.07.07-.07.14-.14.21v.07c0 .07-.07.14-.07.21v7.7h1.4v-7zm.98-1.4L8.4 2.38V8.4zM17.5 30.1H9.8v-9.8c0-.42-.28-.7-.7-.7H.7c-.42 0-.7.28-.7.7v21c0 .42.28.7.7.7h16.8c.42 0 .7-.28.7-.7V30.8c0-.42-.28-.7-.7-.7zM1.4 31.5h7v2.1h-7zm7-1.4h-7V28h7zm0-3.5h-7v-2.1h7zm-7 8.4h7v2.1h-7zm8.4 0h7v2.1h-7zm7-1.4h-7v-2.1h7zM1.4 21h7v2.1h-7zm0 17.5h7v2.1h-7zm15.4 2.1h-7v-2.1h7zM32 5V4h-5v1zm0 3V7H19v1zm1 10v-1h-2v1z"/></svg>