<svg xmlns="http://www.w3.org/2000/svg" width="43" height="44" viewBox="0 0 43 44"><path d="M4.3 6.97l-.65 3.16c-.07.29 0 .57.29.72.22.21.57.14.79 0l2.44-1.8 2.43 1.8c.15.07.29.14.43.14.15 0 .29-.07.43-.14a.69.69 0 0 0 .29-.72l-.65-3.16 2.51-1.86c.22-.15.29-.5.22-.79a.68.68 0 0 0-.65-.5H9.03L7.81 1.38c-.21-.51-1.07-.51-1.29 0L5.3 3.82H2.15a.7.7 0 0 0-.65.5c-.14.29 0 .57.22.79zm1.43-1.72c.29 0 .5-.14.65-.43l.79-1.58.78 1.58c.15.29.36.43.65.43h1.43l-1.14.86a.69.69 0 0 0-.29.72l.36 1.72-1.36-1c-.15-.07-.29-.15-.43-.15-.15 0-.29.08-.43.15l-1.37 1 .36-1.72a.7.7 0 0 0-.28-.72L4.3 5.25zm12.9 1.72l-.64 3.16c-.07.29 0 .57.28.72.22.21.58.14.79 0l2.44-1.8 2.44 1.8a1 1 0 0 0 .43.14c.14 0 .28-.07.43-.14a.7.7 0 0 0 .28-.72l-.64-3.16 2.51-1.86c.21-.15.28-.5.21-.79a.68.68 0 0 0-.64-.5h-3.16l-1.22-2.44c-.28-.51-1.07-.51-1.29 0l-1.21 2.44h-3.16c-.28 0-.57.21-.57.5-.14.29 0 .57.21.79zm2.08-2.15l.79-1.58.79 1.58c.14.29.36.43.64.43h1.44l-1.15.86a.69.69 0 0 0-.29.72l.36 1.72-1.36-1c-.14-.07-.29-.15-.43-.15s-.29.08-.43.15l-1.36 1 .36-1.72a.69.69 0 0 0-.29-.72l-1.15-.86h1.44c.28 0 .5-.14.64-.43zm12.26 2.15l-.65 3.16c-.07.29 0 .57.29.72.21.21.57.14.79 0l2.43-1.8 2.44 1.8c.14.07.29.14.43.14s.29-.07.43-.14a.7.7 0 0 0 .29-.72l-.65-3.16 2.51-1.86c.21-.15.29-.5.21-.79a.67.67 0 0 0-.64-.5H37.7l-1.22-2.44c-.29-.51-1.08-.51-1.29 0l-1.22 2.44h-3.15c-.29 0-.58.21-.58.5-.14.29 0 .57.22.79zm1.43-1.72c.29 0 .5-.14.64-.43l.79-1.58.79 1.58c.15.29.36.43.65.43h1.43l-1.15.86a.68.68 0 0 0-.28.72l.36 1.72-1.37-1c-.14-.07-.28-.15-.43-.15-.14 0-.28.08-.43.15l-1.36 1 .36-1.72a.69.69 0 0 0-.29-.72l-1.14-.86zM10.03 28.21H7.17a.68.68 0 0 0-.72.72v4.31c0 .43.29.71.72.71h2.86c.43 0 .72-.28.72-.71v-4.31a.68.68 0 0 0-.72-.72zm-2.15 4.31v-2.87h1.44v2.87zm2.15 2.87H7.17a.68.68 0 0 0-.72.72v4.3c0 .43.29.72.72.72h2.86c.43 0 .72-.29.72-.72v-4.3a.68.68 0 0 0-.72-.72zm-2.15 4.3v-2.87h1.44v2.87zm27.95-11.48h-2.86a.68.68 0 0 0-.72.72v4.31c0 .43.29.71.72.71h2.86c.43 0 .72-.28.72-.71v-4.31a.68.68 0 0 0-.72-.72zm-.71 4.31h-1.44v-2.87h1.44zm.71 2.87h-2.86a.68.68 0 0 0-.72.72v4.3c0 .43.29.72.72.72h2.86c.43 0 .72-.29.72-.72v-4.3a.68.68 0 0 0-.72-.72zm-.71 4.3h-1.44v-2.87h1.44zM16.48 22.47h2.87c.43 0 .72-.28.72-.71v-5.75c0-.43-.29-.71-.72-.71h-2.87c-.43 0-.71.28-.71.71v5.75c0 .43.28.71.71.71zm.72-5.74h1.43v4.31H17.2zm6.45 5.74h2.87c.43 0 .71-.28.71-.71v-5.75c0-.43-.28-.71-.71-.71h-2.87c-.43 0-.72.28-.72.71v5.75c0 .43.29.71.72.71zm2.15-5.74v4.31h-1.43v-4.31zm-2.15 14.35h2.87c.43 0 .71-.28.71-.71v-5.74c0-.43-.28-.72-.71-.72h-2.87a.68.68 0 0 0-.72.72v5.74c0 .43.29.71.72.71zm2.15-5.74v4.31h-1.43v-4.31zm-6.45 5.74c.43 0 .72-.28.72-.71v-5.74a.68.68 0 0 0-.72-.72h-2.87c-.43 0-.71.29-.71.72v5.74c0 .43.28.71.71.71zm-2.15-5.74h1.43v4.31H17.2zm25.08 17.23h-2.15V26.06c0-.43-.28-.72-.71-.72H30.1v-12.2c0-.43-.29-.71-.72-.71H13.62c-.43 0-.72.28-.72.71v12.2H3.58c-.43 0-.71.29-.71.72v16.51H.72c-.43 0-.72.28-.72.71 0 .43.29.72.72.72h41.56c.43 0 .72-.29.72-.72s-.29-.71-.72-.71zM4.3 26.78h8.6v15.79H4.3zm10.03-12.92h14.34v28.71h-4.3v-6.46a.68.68 0 0 0-.72-.72h-4.3a.68.68 0 0 0-.72.72v6.46h-4.3zm5.74 28.71v-5.75h2.86v5.75zM30.1 26.78h8.6v15.79h-8.6z"/></svg>