<svg xmlns="http://www.w3.org/2000/svg" width="48" height="33" viewBox="0 0 48 33"><path d="M20.6 13.13a.78.78 0 0 0 1.11 0l.72-.73c.34.17.7.27 1.07.27.37 0 .74-.1 1.08-.27l.72.73a.78.78 0 0 0 1.11 0 .8.8 0 0 0 0-1.11l-.72-.73c.33-.68.33-1.47 0-2.15l.72-.73c.3-.3.3-.8 0-1.11a.8.8 0 0 0-1.11 0l-.72.73a2.4 2.4 0 0 0-2.15 0l-.72-.73a.8.8 0 0 0-1.11 0 .78.78 0 0 0 0 1.11l.72.73a2.41 2.41 0 0 0 0 2.16l-.72.72c-.31.3-.31.8 0 1.11zm3.52-3.54a.88.88 0 0 1-1.24 1.25.9.9 0 0 1 0-1.25.87.87 0 0 1 1.24 0zm22.77 4.35a4.02 4.02 0 0 0-3.86-2.93 10.17 10.17 0 0 0-8.45-4.72C32.94 2.56 28.48 0 23.5 0c-4.97 0-9.43 2.56-11.07 6.29-3.42.03-6.6 1.82-8.46 4.72a4 4 0 0 0-3.93 3.35 3.95 3.95 0 0 0 2.31 4.16V26c0 1.44 1 2.65 2.35 2.98v3.23c0 .44.35.79.78.79h2.35a.8.8 0 0 0 .73-.49l1.37-3.44h27.15l1.37 3.44c.12.29.4.49.72.49h2.35c.44 0 .79-.35.79-.79v-3.23A3.09 3.09 0 0 0 44.66 26v-7.48a3.92 3.92 0 0 0 2.23-4.58zM12.53 7.86c1.3 0 2.35 1.06 2.35 2.35a.79.79 0 1 0 1.57 0c0-1.63-1-3.03-2.42-3.62 1.51-2.99 5.26-5.02 9.47-5.02 4.21 0 7.97 2.03 9.48 5.02a3.93 3.93 0 0 0-2.43 3.62.78.78 0 1 0 1.57 0 2.36 2.36 0 0 1 2.35-2.35c2.7 0 5.24 1.3 6.87 3.44-.43.17-.83.4-1.19.68h-.01c-.16.13-.32.27-.47.43l-.08.09a5.7 5.7 0 0 0-.31.38l-.09.12a3.77 3.77 0 0 0-.37.65l-.18.45-.04.11c-.06.19-.1.39-.14.58l-.02.16c-.03.21-.05.42-.05.64v3.71a21.72 21.72 0 0 0-14.89.29 21.7 21.7 0 0 0-14.88-.29v-3.71c0-.22-.02-.43-.05-.64l-.03-.16a4.03 4.03 0 0 0-.13-.58l-.05-.11a4.22 4.22 0 0 0-.54-1.1l-.09-.12c-.1-.13-.2-.26-.32-.38l-.08-.09a4.7 4.7 0 0 0-1.66-1.11 8.64 8.64 0 0 1 6.86-3.44zm-3.5 14.93a.41.41 0 0 1-.41-.42v-1.4c4.56-1.7 9.53-1.7 14.1 0v1.82zm15.26-1.82c4.56-1.7 9.53-1.7 14.1 0v1.4c0 .23-.19.42-.42.42H24.29zM7.3 31.43H6.26v-2.36h1.98zm33.44 0H39.7l-.94-2.36h1.98zm2.94-14.23a.66.66 0 0 0-.19.09h-1.18a.78.78 0 1 0 0 1.57h.78V26c0 .83-.67 1.5-1.5 1.5H5.41a1.5 1.5 0 0 1-1.5-1.5v-7.14h.79c.43 0 .78-.35.78-.79a.78.78 0 0 0-.78-.78H3.52a.66.66 0 0 0-.19-.09 2.36 2.36 0 0 1-1.74-2.62 2.43 2.43 0 0 1 2.45-2.01c.09 0 .16.02.25.03h.03a3.16 3.16 0 0 1 1.51.58l.11.09.29.26.15.19.18.23.16.29.1.21c.05.12.08.25.12.38l.05.17c.03.19.06.38.06.59v7.98c0 .44.35.79.78.79h31.34c.44 0 .79-.35.79-.79v-7.98c0-.21.02-.4.06-.59l.04-.17c.04-.13.07-.26.12-.38.03-.08.07-.14.11-.21.04-.1.09-.2.15-.29l.18-.23.16-.19.28-.26.11-.09c.13-.1.27-.19.42-.26l.02-.01a3 3 0 0 1 1.08-.31h.03l.24-.03c1.15 0 2.16.73 2.4 1.74a2.36 2.36 0 0 1-1.68 2.89z"/></svg>