<svg xmlns="http://www.w3.org/2000/svg" width="38" height="39" viewBox="0 0 38 39"><path d="M10.03 28.32a.93.93 0 0 1-1.25.46l-4.19-1.97a.94.94 0 0 1-.45-1.26.93.93 0 0 1 1.25-.46l4.19 1.97c.47.22.68.79.45 1.26zM2.47 5.59A5.58 5.58 0 0 1 8.01 0h22.98a5.58 5.58 0 0 1 0 11.17h-.19v6.77c0 .52-.42.95-.94.95a.96.96 0 0 1-.95-.95v-6.77h-2.52a.94.94 0 0 1-.94-.95c0-.53.42-.95.94-.95h4.6a3.67 3.67 0 0 0 3.65-3.68 3.67 3.67 0 0 0-3.65-3.68H17.51a3.64 3.64 0 0 0-3.65 3.62.94.94 0 1 1-1.89 0c0-1.39.51-2.65 1.36-3.62H8.01a3.67 3.67 0 0 0-3.65 3.68 3.67 3.67 0 0 0 3.65 3.68H19.5a3.67 3.67 0 0 0 3.65-3.68c0-.53.42-.96.94-.96.53 0 .95.43.95.96a5.57 5.57 0 0 1-5.54 5.58h-9.42v6.77c0 .52-.42.95-.94.95a.95.95 0 0 1-.94-.95v-6.77h-.19a5.57 5.57 0 0 1-5.54-5.58zm32.05 18.86a.95.95 0 0 0-1.25.49c-.14.33-.35.56-.62.69l-2.31 1.09c-.26.12-.57.13-.91.04a.94.94 0 0 0-1.17.65.96.96 0 0 0 .65 1.18c.32.09.64.14.95.14.45 0 .88-.1 1.28-.29l2.31-1.08A3.2 3.2 0 0 0 35 25.71a.96.96 0 0 0-.48-1.26zm-23.37 1.46a.94.94 0 0 1-1.26.46L5.71 24.4a.95.95 0 0 1-.46-1.26.93.93 0 0 1 1.25-.46l4.19 1.97c.47.22.68.79.46 1.26zm26.55.99a4.87 4.87 0 0 1-2.53 2.79l-3.36 1.59a4.88 4.88 0 0 1-6.03-1.57l-3.72 1.75 12.18 5.72c.47.23.67.79.45 1.27a.93.93 0 0 1-1.25.46l-13.61-6.4-13.56 6.37a.94.94 0 0 1-1.26-.46.95.95 0 0 1 .46-1.26l12.12-5.7-3.66-1.72A4.92 4.92 0 0 1 7.9 31.3l-5.31-2.49a2.79 2.79 0 0 1-1.33-3.7l1.81-3.91a2.75 2.75 0 0 1 3.66-1.35l5.31 2.5a4.94 4.94 0 0 1 2.69 5.66l5.1 2.4 5.15-2.42a4.98 4.98 0 0 1 2.68-5.67l3.37-1.58a4.93 4.93 0 1 1 6.67 6.16zm-24.91-1.11a2.96 2.96 0 0 0-1.55-1.72l-5.31-2.49a.87.87 0 0 0-1.15.42l-1.81 3.92c-.2.43-.01.96.42 1.16l5.31 2.5c.72.34 1.54.37 2.3.09a3 3 0 0 0 1.79-3.88zm23.04-1.86a3.02 3.02 0 0 0-4-1.47l-3.37 1.59a3.05 3.05 0 0 0 .25 5.6c.76.28 1.57.24 2.3-.1l3.36-1.58a3.06 3.06 0 0 0 1.46-4.04z"/></svg>