<svg xmlns="http://www.w3.org/2000/svg" width="38" height="33" viewBox="0 0 38 33"><path d="M26.92 15.29h-3.96v-4.02a.8.8 0 0 0-.79-.81h-6.34a.8.8 0 0 0-.79.81v4.02h-3.96a.8.8 0 0 0-.79.81v6.44c0 .44.36.8.79.8h3.96v4.03c0 .44.36.8.79.8h6.34a.8.8 0 0 0 .79-.8v-4.03h3.96a.8.8 0 0 0 .79-.8V16.1a.8.8 0 0 0-.79-.81zm-.79 6.44h-3.96a.8.8 0 0 0-.79.81v4.02h-4.76v-4.02a.8.8 0 0 0-.79-.81h-3.96V16.9h3.96a.8.8 0 0 0 .79-.8v-4.03h4.76v4.03c0 .44.35.8.79.8h3.96zm7.31-16.1h-8.11v-2.3A3.33 3.33 0 0 0 22 0h-6.28c-1.77 0-3.05 1.4-3.05 3.33v2.3H4.56A4.6 4.6 0 0 0 0 10.27v18.09A4.6 4.6 0 0 0 4.56 33h28.88A4.6 4.6 0 0 0 38 28.36V10.27a4.6 4.6 0 0 0-4.56-4.64zm-19.19-2.3c0-.86.45-1.72 1.47-1.72H22c.96 0 1.75.77 1.75 1.72v2.3h-9.5zm19.19 28.06H4.56a3.01 3.01 0 0 1-2.98-3.03V10.27a3.02 3.02 0 0 1 2.98-3.03h28.88a3.02 3.02 0 0 1 2.98 3.03v18.09a3.01 3.01 0 0 1-2.98 3.03z"/></svg>