<svg xmlns="http://www.w3.org/2000/svg" width="48" height="25" viewBox="0 0 48 25"><path d="M10.48 21.78a2.45 2.45 0 1 0 0-4.9 2.45 2.45 0 0 0 0 4.9zm0-3.38a.94.94 0 0 1 0 1.87.93.93 0 0 1 0-1.87zm26.78-1.51a2.45 2.45 0 0 0 0 4.89 2.45 2.45 0 0 0 0-4.89zm0 3.38a.93.93 0 1 1 0-1.87.93.93 0 0 1 0 1.87zm-16.84-9.63a.75.75 0 0 0-.75.75c0 .42.33.76.75.76h1.95c.42 0 .75-.34.75-.76a.75.75 0 0 0-.75-.75zm4.85-1.97c0 .42.34.76.76.76h2.11a.75.75 0 0 0 .67-1.11l-2.29-4.24-.01-.02a2.4 2.4 0 0 0-2-1.14H19.16c-3.97 0-7.63 2-9.78 5.35a.76.76 0 0 0 .64 1.16H23.4a.76.76 0 0 0 0-1.51h-3.48V4.43h4.6c.4 0 .64.33.68.39l1.68 3.1h-.85a.76.76 0 0 0-.76.75zm-6.87-.75h-6.88a10.05 10.05 0 0 1 6.88-3.46zm29.45 5.62v-.01l-.02-.07a8.18 8.18 0 0 0-.07-.26l-.03-.12a3.69 3.69 0 0 0-.18-.56l-.06-.15a6.87 6.87 0 0 0-.08-.18l-.06-.15-.08-.17-.09-.16-.08-.15-.1-.16a8.76 8.76 0 0 0-.27-.42l-.12-.18-.07-.09-.15-.19-.05-.06a11.27 11.27 0 0 0-.2-.23 7.13 7.13 0 0 0-1.28-1.1l-.2-.14-.1-.06-.06-.03-.04-.03a7.1 7.1 0 0 0-3.55-.95h-8.77L28.73 1.6l-.01-.02C28.68 1.52 27.78 0 25.94 0H20.07A17.94 17.94 0 0 0 2.42 14.69h-.4C.92 14.69 0 15.6 0 16.72v3.29c0 1.12.91 2.03 2.03 2.03h.64c.26 0 .5-.05.74-.14l.12.04c.07.03.15.04.23.04h1.71a5.68 5.68 0 0 0 10.02 0h2.43a.76.76 0 0 0 0-1.51h-1.88a6.84 6.84 0 0 0 .08-.56l.01-.16.01-.13.01-.29a5.67 5.67 0 1 0-11.32.4l.01.18.03.19.01.09.05.28h-.29v-.02l.02-.06a2.2 2.2 0 0 0 .03-.38v-3.29a2.01 2.01 0 0 0-.04-.4v-.02a2 2 0 0 0-.77-1.2A16.5 16.5 0 0 1 20.07 1.51h5.86c.93 0 1.43.75 1.48.83l3.61 6.69c.14.25.4.4.67.4h9.22c.63 0 1.24.11 1.8.3a3.35 3.35 0 0 0 3.77 5.23v5.05c0 .24-.17.43-.4.46h-3.27c.06-.27.1-.54.1-.81v-.04l.02-.29a5.67 5.67 0 1 0-11.22 1.14H20.37a.76.76 0 0 0 0 1.51h11.88a5.68 5.68 0 0 0 10.02 0h3.77l.2-.01c1-.1 1.76-.94 1.76-1.96v-5c0-.51-.05-1-.15-1.47zM3.18 20.01v.1l-.01.01-.03.09v.01l-.05.08v.01a.19.19 0 0 1-.05.05l-.02.03a.55.55 0 0 1-.36.14h-.63a.52.52 0 0 1-.52-.52v-3.29c0-.28.23-.52.52-.52h.64c.06 0 .12.02.18.04l.03.01a.2.2 0 0 1 .06.04l.02.01c.05.03.1.08.13.13v.01l.05.07v.02l.03.07v.03l.01.09zm7.3-4.83a4.16 4.16 0 0 1 4.15 4.36v.08l-.01.13-.01.11-.02.09-.02.15-.01.05a2.5 2.5 0 0 1-.04.19v.01c-.06.2-.12.39-.2.58v.01a4.16 4.16 0 0 1-7.67 0v-.01a3.95 3.95 0 0 1-.2-.58v-.01a3.07 3.07 0 0 1-.04-.19l-.01-.05-.03-.15v-.09l-.02-.11-.01-.12v-.09l-.01-.21a4.16 4.16 0 0 1 4.15-4.15zm34.82-1.51a1.83 1.83 0 0 1-1.18-3.22l.11.08.02.02c.29.21.55.45.79.71l.16.19.03.03.13.17.03.04.13.18.02.03c.1.14.19.3.27.45l.12.22.03.07.08.17.03.07.06.16.03.09.06.16c0 .03.02.06.03.08v.03c-.28.18-.6.27-.95.27zm-3.89 5.88v.04c0 .05 0 .11-.02.17v.03l-.02.18v.01l-.04.19v.01l-.05.19v.01a4.16 4.16 0 0 1-7.92.39v-.01a4.28 4.28 0 0 1-.07-.18v-.01l-.05-.19v-.01a2.45 2.45 0 0 1-.05-.19v-.01a2.63 2.63 0 0 1-.04-.19v-.01l-.02-.18v-.03l-.02-.17v-.04-.21a4.16 4.16 0 1 1 8.3.21z"/></svg>