<svg xmlns="http://www.w3.org/2000/svg" width="43" height="42" viewBox="0 0 43 42"><path d="M21.58 3.21h-.19a.96.96 0 0 0 0 1.91h.19c.53 0 .95-.43.95-.95a.95.95 0 0 0-.95-.96zm20.15 17.12l-9.79-10.02a.9.9 0 0 0-.67-.29h-4.09l-2.3-9.3a.94.94 0 0 0-.91-.72h-8.29a.95.95 0 0 0-.95.96c0 .52.42.95.95.95h2.12l-2.01 8.11H11.7c-.25 0-.49.1-.67.29L1.25 20.33a.95.95 0 0 0-.03 1.31l2.86 3.22c.35.39.95.42 1.34.07a.96.96 0 0 0 .07-1.35l-2.27-2.55 1.57-1.62 5.31 5.96c.35.39.95.43 1.34.07a.96.96 0 0 0 .07-1.35l-5.39-6.04 1.49-1.52 7.5 8.4c.34.39.94.42 1.33.07a.96.96 0 0 0 .07-1.35l-7.57-8.49 1.59-1.62 9.68 10.86-6.77 7.61a.95.95 0 0 0 .07 1.34c.38.36.98.33 1.33-.07l1.5-1.67v5.83c0 .52.42.95.94.95.53 0 .95-.43.95-.95v-7.96l2.31-2.59v14.15c0 .53.42.96.95.96.52 0 .94-.43.94-.96V26.89l2.31 2.6v7.95c0 .52.43.95.95.95s.94-.43.94-.95v-5.83l1.5 1.67c.35.4.95.43 1.34.07a.97.97 0 0 0 .07-1.34l-6.78-7.61 9.68-10.86 1.59 1.62-7.57 8.49a.96.96 0 0 0 .07 1.35c.39.35.99.32 1.34-.07l7.49-8.4 1.49 1.52-5.39 6.04a.97.97 0 0 0 .07 1.35c.39.36.99.32 1.34-.07l5.31-5.96 1.58 1.62-2.28 2.55a.96.96 0 0 0 .07 1.35c.39.35.99.32 1.34-.07l2.87-3.22a.97.97 0 0 0-.03-1.31zM19.74 1.91h3.49l2.01 8.11h-7.5zm1.75 21.07l-9.63-10.8.24-.25h18.77l.24.25zm4.13-7.94l-3.43 3.84a.96.96 0 0 1-.7.32.96.96 0 0 1-.71-.32l-3.42-3.84a.96.96 0 0 1 .07-1.35.93.93 0 0 1 1.33.07l2.73 3.06 2.72-3.06a.94.94 0 0 1 1.34-.07c.39.35.42.95.07 1.35z"/></svg>