<svg xmlns="http://www.w3.org/2000/svg" width="40" height="36" viewBox="0 0 40 36"><path d="M16.35 29.16a3.43 3.43 0 1 0 0 6.85 3.43 3.43 0 0 0 0-6.85zm0 4.93c-.83 0-1.51-.68-1.51-1.51a1.52 1.52 0 0 1 3.03 0c0 .83-.68 1.51-1.52 1.51zm12.03-4.93a3.43 3.43 0 1 0 0 6.85 3.43 3.43 0 0 0 0-6.85zm0 4.93c-.83 0-1.51-.68-1.51-1.51a1.52 1.52 0 0 1 3.03 0c0 .83-.68 1.51-1.52 1.51zm.85-22.95H15.51a.96.96 0 0 0-.96.96c0 .53.43.95.96.95h13.72c.53 0 .96-.42.96-.95a.96.96 0 0 0-.96-.96zm-.75 4.96H16.25a.96.96 0 0 0-.95.96c0 .53.42.95.95.95h12.23c.53 0 .96-.42.96-.95a.96.96 0 0 0-.96-.96zm10.1-9.21a1.9 1.9 0 0 0-1.5-.7H7.27l-.6-2.92A1.92 1.92 0 0 0 5.54 1.9L1.34.08a.96.96 0 1 0-.76 1.75l4.2 1.82 4.63 22.44c.19.88.97 1.52 1.88 1.52h22.94c.53 0 .96-.42.96-.95a.96.96 0 0 0-.96-.96H11.29l-.56-2.73H34.4c.9 0 1.7-.64 1.87-1.52l2.68-12.97a1.9 1.9 0 0 0-.39-1.59zM34.4 21.06H10.33L7.65 8.1H37.1z"/></svg>