<svg xmlns="http://www.w3.org/2000/svg" width="43" height="42" viewBox="0 0 43 42"><path d="M28.7 18.95A10.83 10.83 0 0 0 17.87 6.8c-6.02 0-10.93 4.8-10.93 10.71 0 5.9 4.91 10.71 10.93 10.71a1 1 0 0 1 1 .98 1 1 0 0 1-1 .98c-7.13 0-12.93-5.69-12.93-12.67 0-6.99 5.8-12.67 12.93-12.67S30.8 10.52 30.8 17.51c0 .57-.04 1.14-.11 1.7-.08.53-.58.91-1.13.84a.99.99 0 0 1-.86-1.1zm-7.07 20.98c0 .54-.44.98-1 .98H13.1a1 1 0 0 1-1-.98 1 1 0 0 1 1-.98h3.77v-3.96C7.48 34.48 0 26.83 0 17.51 0 7.85 8.02 0 17.87 0c9.86 0 17.87 7.85 17.87 17.51 0 1.79-.27 3.56-.82 5.25a.99.99 0 0 1-1.25.64.96.96 0 0 1-.65-1.22c.48-1.51.72-3.08.72-4.67 0-8.57-7.12-15.55-15.87-15.55S2 8.94 2 17.51s7.12 15.55 15.87 15.55a1 1 0 0 1 1 .98v4.91h1.76c.56 0 1 .44 1 .98zm-.18-17.53L12.88 14a.96.96 0 0 1 0-1.38 1 1 0 0 1 1.41 0l8.58 8.4c.39.38.39 1 0 1.38-.2.19-.45.29-.71.29-.26 0-.51-.1-.71-.29zm-7.05-4.15l4.72 4.62a.97.97 0 0 1-.71 1.67c-.25 0-.51-.09-.71-.28l-4.71-4.63a.96.96 0 0 1 0-1.38 1 1 0 0 1 1.41 0zm22.59 21.38a12.47 12.47 0 0 1-7.2 2.37c-1.78 0-3.51-.42-5.03-1.26l-.38.28c-.45.32-1.07.22-1.4-.21a.96.96 0 0 1 .22-1.37l.39-.28a9.87 9.87 0 0 1-.1-.53 9.5 9.5 0 0 1-2.97-8.86c.68-4.05 3.62-7.23 7.31-7.91.23-.04.47 0 .68.11a8.5 8.5 0 0 1 3.71 4.25 10.8 10.8 0 0 1 9.01 1.12c.19.13.34.32.4.55 1.22 4.16-.64 8.88-4.64 11.74zm-11.32-8.9l.59-3.52a1 1 0 0 1 1.15-.81c.49.08.84.49.84.97l-.01.16-.14.77.29-.21a12.7 12.7 0 0 1 1.97-1.16 6.53 6.53 0 0 0-2.52-3.06c-2.7.66-4.82 3.12-5.35 6.22a8.02 8.02 0 0 0 1.03 5.55 11.1 11.1 0 0 1 2.15-4.91zm14.13-1.95a9.02 9.02 0 0 0-7.9-.38 11.05 11.05 0 0 0-4.45 3.27l-.1.13a8.72 8.72 0 0 0-1.94 6.05l10.11-7.22a1.01 1.01 0 0 1 1.4.21.96.96 0 0 1-.22 1.37l-10.11 7.23c2.83 1.15 6.36.65 9.22-1.39 3.21-2.3 4.78-5.98 3.99-9.27zM20.66 15.84c.26 0 .51-.1.71-.29.39-.38.39-1 0-1.39l-3.48-3.41a1.03 1.03 0 0 0-1.42 0 .97.97 0 0 0 0 1.39l3.49 3.41a1 1 0 0 0 .7.29z"/></svg>