<svg xmlns="http://www.w3.org/2000/svg" width="31" height="43" viewBox="0 0 31 43"><path d="M20.45 38.14H18.2a2.78 2.78 0 0 0-2.04-2.04V18.2a2.79 2.79 0 1 0-1.32 0v17.9a2.78 2.78 0 0 0-2.04 2.04h-2.25c-1.14 0-2.07.93-2.07 2.08v2.12c0 .36.29.66.66.66h12.72c.37 0 .66-.3.66-.66v-2.12c0-1.15-.93-2.08-2.07-2.08zM14.04 15.5a1.46 1.46 0 0 1 2.92 0 1.46 1.46 0 0 1-2.92 0zm1.46 21.85c.56 0 1.05.32 1.3.79h-2.6c.25-.47.74-.79 1.3-.79zm5.7 4.33H9.8v-1.46c0-.42.34-.75.75-.75h9.9c.41 0 .75.33.75.75zM15.5 0A15.51 15.51 0 0 0 3.14 24.84a15.63 15.63 0 0 0 7.93 5.5c.35.11.72-.09.83-.44a.68.68 0 0 0-.45-.83 14.3 14.3 0 0 1-7.26-5.03A14.2 14.2 0 0 1 15.5 1.32a14.2 14.2 0 0 1 11.31 22.72 14.3 14.3 0 0 1-7.26 5.03.68.68 0 0 0-.45.83c.09.28.35.47.64.47a15.63 15.63 0 0 0 8.12-5.53A15.51 15.51 0 0 0 15.5 0zm0 9.8a5.71 5.71 0 0 1 3.8 9.93.66.66 0 0 0-.05.94.66.66 0 0 0 .93.05 7.03 7.03 0 1 0-11.7-5.22c0 1.98.85 3.88 2.34 5.22a.66.66 0 1 0 .88-.99 5.71 5.71 0 0 1 3.8-9.93zm4.24 16.07c.09 0 .18-.02.27-.06a11.25 11.25 0 1 0-9.02 0c.34.15.73-.01.88-.34a.67.67 0 0 0-.34-.87 9.94 9.94 0 1 1 7.94 0 .67.67 0 0 0 .27 1.27z"/></svg>