<svg xmlns="http://www.w3.org/2000/svg" width="56" height="56" viewBox="0 0 56 56"><path fill="#f50f29" d="M6.53 48.53A6.55 6.55 0 0 0 0 55.07c0 .51.42.93.93.93h11.2c.52 0 .94-.42.94-.93 0-3.6-2.93-6.54-6.54-6.54zm-4.57 5.6A4.68 4.68 0 0 1 5.6 50.5v1.77h1.87V50.5a4.7 4.7 0 0 1 3.64 3.63zm53.11-14h-1.64a6.4 6.4 0 0 0-.16-.39l1.16-1.15a.94.94 0 0 0 0-1.32l-3.96-3.96a.92.92 0 0 0-.7-.27 4.66 4.66 0 0 0 2.5-4.11V4.67c0-2.58-2.1-4.67-4.67-4.67H4.67A4.67 4.67 0 0 0 0 4.67v24.26a4.67 4.67 0 0 0 4.67 4.67h12.18l-3.53 6.53h-1.65a3.28 3.28 0 0 0 0 6.54h20.06c0 .51.42.93.94.93h1.63l.17.39-1.16 1.16a.92.92 0 0 0 0 1.32l3.96 3.96c.36.36.95.36 1.32 0l1.16-1.16.38.16v1.64c0 .51.42.93.94.93h5.6c.51 0 .93-.42.93-.93v-1.64l.39-.16 1.16 1.16c.36.36.95.36 1.32 0l3.96-3.96a.94.94 0 0 0 0-1.32l-1.16-1.16.16-.39h1.64c.51 0 .93-.42.93-.93v-5.6a.94.94 0 0 0-.93-.94zM1.87 4.67a2.8 2.8 0 0 1 2.8-2.8H47.6a2.8 2.8 0 0 1 2.8 2.8v19.6H1.87zm2.8 27.06a2.8 2.8 0 0 1-2.8-2.8v-2.8H50.4v2.8a2.8 2.8 0 0 1-2.8 2.8zm44.46 1.59l-1.14 1.15-.39-.17v-.7c.54 0 1.05-.11 1.53-.28zm-9 .28v.7l-.38.17-.87-.87zm-3.16 0l-.8.8-.55-.8zm-5.24 11.2H11.67a1.4 1.4 0 1 1 0-2.8h20.06zm-16.29-4.67l3.53-6.53h14.39l1.47 2.15-1.52 1.52a.92.92 0 0 0 0 1.32l1.16 1.15-.17.39zm38.69 5.6h-1.36a.93.93 0 0 0-.89.66c-.14.45-.33.91-.57 1.36-.19.36-.12.8.17 1.09l.97.97-2.64 2.64-.97-.97a.93.93 0 0 0-1.09-.17c-.45.24-.91.43-1.36.57a.93.93 0 0 0-.66.89v1.36H42v-1.36a.92.92 0 0 0-.65-.89 7.87 7.87 0 0 1-1.36-.57.94.94 0 0 0-1.1.17l-.96.97-2.64-2.64.96-.97a.93.93 0 0 0 .17-1.09 8.75 8.75 0 0 1-.57-1.36.93.93 0 0 0-.89-.66H33.6V42h1.36c.41 0 .77-.26.89-.65.14-.45.34-.91.57-1.36a.94.94 0 0 0-.17-1.1l-.96-.96 2.64-2.64.96.96c.29.29.73.36 1.09.17.46-.23.92-.43 1.37-.57a.92.92 0 0 0 .65-.89V33.6h3.73v1.36c0 .41.27.77.66.89.45.14.91.34 1.36.57.36.19.8.12 1.09-.17l.97-.96 2.64 2.64-.97.96a.93.93 0 0 0-.17 1.09c.24.46.43.92.57 1.37.12.39.48.65.89.65h1.36zm-10.26-7.46a5.6 5.6 0 1 0 0 11.2 5.6 5.6 0 0 0 0-11.2zm0 9.33a3.74 3.74 0 1 1 0-7.48 3.74 3.74 0 0 1 0 7.48zM18.39 7.19l-1.32-1.32-6.53 6.54a.94.94 0 0 0 0 1.32l6.53 6.53 1.32-1.32-5.87-5.87zm20.54 5.22l-6.54-6.54-1.32 1.32 5.88 5.88-5.88 5.87 1.32 1.32 6.54-6.53a.94.94 0 0 0 0-1.32zm-17.56 8.54l8.39-16.79-1.66-.84-8.4 16.8zM38 21v-2h-2v2zm4 0v-2h-2v2zm4 0v-2h-2v2z"/></svg>