<svg xmlns="http://www.w3.org/2000/svg" width="39" height="41" viewBox="0 0 39 41"><path d="M36.7 22.96a9.72 9.72 0 0 0-5.3-2.44l-2.1-.31c-3.66-.53-8.54-1.24-12.79-1.76l-2.17-4.61h3.51a.8.8 0 0 0 .8-.8c0-1.97-1.6-3.58-3.58-3.58H8.92a.8.8 0 0 0-.8.79c0 1.98 1.6 3.59 3.58 3.59h.88l2.07 4.4a81.37 81.37 0 0 0-4.22-.39c-2.6-.17-5.1.76-7.07 2.61a10.7 10.7 0 0 0 1.28 16.58l-2.6 2.6a.8.8 0 0 0 0 1.13.81.81 0 0 0 1.13 0l2.92-2.92a9.3 9.3 0 0 0 4.34.78c4.21-.27 11.72-1.35 17.2-2.13l2.3-.33 4.59 4.6c.15.15.36.23.56.23.2 0 .4-.08.56-.23a.8.8 0 0 0 0-1.13l-3.75-3.76a9.52 9.52 0 0 0 4.82-2.36A7.1 7.1 0 0 0 39 28.24a7.1 7.1 0 0 0-2.3-5.28zm-25-10.71a2 2 0 0 1-1.82-1.2h5.19c.81 0 1.51.49 1.82 1.2zm19.47 22.13l-3.76.54c-5.46.78-12.93 1.86-17.08 2.12a7.82 7.82 0 0 1-5.88-2.18 9.13 9.13 0 0 1 0-13.24 7.84 7.84 0 0 1 5.4-2.2l.48.02c4.6.29 13.11 1.53 18.74 2.35l2.1.3c3.1.45 6.24 2.53 6.24 6.15 0 3.65-3.13 5.71-6.24 6.14zM10.6 21.78a6.46 6.46 0 1 0 .01 12.92 6.46 6.46 0 0 0 0-12.92zm0 11.33a4.87 4.87 0 0 1 0-9.74 4.87 4.87 0 0 1 0 9.74zM33.1 18.65l-.12-.48a.8.8 0 0 0-1.54.4l.12.48c.1.36.42.6.77.6.07 0 .13-.01.2-.03a.8.8 0 0 0 .57-.97zm3.24-14.02l-.85-2.28a2.06 2.06 0 1 0-3.86 1.43l.11.31-3.59 1.25a2.07 2.07 0 0 0 .68 4.02l.25-.02 1.75 6.84c.1.36.42.6.77.6l.2-.03a.8.8 0 0 0 .57-.97L30.6 8.86l4.48-1.56a2.07 2.07 0 0 0 1.26-2.67zm-1.51.92a.47.47 0 0 1-.27.24l-5.57 1.95a.42.42 0 0 1-.16.03.47.47 0 0 1-.44-.32.47.47 0 0 1 .29-.6l4.35-1.52a.8.8 0 0 0 .46-.41c.09-.2.1-.42.02-.62l-.4-1.07a.48.48 0 0 1 .44-.64c.2 0 .38.12.45.31l.85 2.28c.04.12.03.26-.02.37zm-4.31 24.5h-1.74l-3.52-3.53a.8.8 0 0 0-1.13 0 .79.79 0 0 0 0 1.12l2.4 2.41h-.15a.8.8 0 0 0-.8.79c0 .44.36.8.8.8h4.14a.8.8 0 0 0 .8-.8.8.8 0 0 0-.8-.79z"/></svg>