<svg xmlns="http://www.w3.org/2000/svg" width="104" height="15" viewBox="0 0 104 15"><path fill="#fff" d="M11.84 14c3.92 0 7.57-1.96 10.04-5.16A12.77 12.77 0 0 0 31.92 14c3.91 0 7.57-1.96 10.04-5.16A12.77 12.77 0 0 0 52 14c3.92 0 7.57-1.96 10.04-5.16A12.77 12.77 0 0 0 72.08 14c3.91 0 7.57-1.96 10.04-5.16A12.77 12.77 0 0 0 92.16 14c5.63 0 9.79-3.16 11.7-8.9a2.58 2.58 0 0 0-1.59-3.26 2.53 2.53 0 0 0-3.21 1.61c-1.22 3.64-3.48 5.4-6.9 5.4-3.32 0-6.37-2.45-7.6-6.1A2.54 2.54 0 0 0 82.17 1h-.07c-1.07 0-2.06.67-2.42 1.75-1.22 3.65-4.27 6.1-7.6 6.1-3.31 0-6.36-2.45-7.58-6.1A2.54 2.54 0 0 0 62.08 1H62c-1.07 0-2.06.67-2.42 1.75-1.22 3.65-4.27 6.1-7.59 6.1-3.32 0-6.37-2.45-7.6-6.1A2.54 2.54 0 0 0 42 1h-.07c-1.06 0-2.06.67-2.42 1.75-1.22 3.65-4.27 6.1-7.59 6.1-3.32 0-6.37-2.45-7.59-6.1A2.54 2.54 0 0 0 21.93 1h-.08c-1.06 0-2.06.67-2.42 1.75-1.22 3.65-4.27 6.1-7.59 6.1-3.42 0-5.68-1.76-6.9-5.4a2.53 2.53 0 0 0-3.21-1.61A2.58 2.58 0 0 0 .13 5.1C2.06 10.84 6.22 14 11.85 14z"/></svg>