<svg xmlns="http://www.w3.org/2000/svg" width="45" height="44" viewBox="0 0 45 44"><defs><linearGradient id="a" x1="662.74" x2="730.24" y1="1548.53" y2="1548.53" gradientUnits="userSpaceOnUse"><stop offset="0" stop-color="#ff0b78"/><stop offset="1" stop-color="#fb9027"/></linearGradient></defs><path d="M44.1 40.19H5.37l4.9-5.35a3.1 3.1 0 0 0 4.18-1.31l4.98 1.24a3.06 3.06 0 0 0 3.07 2.78c1.7 0 3.08-1.36 3.08-3.03 0-.92-.42-1.75-1.08-2.31l4.07-9.58 2.9 7.28a3.03 3.03 0 0 0-1.14 2.35 3.07 3.07 0 0 0 3.08 3.04c1.7 0 3.08-1.37 3.08-3.04 0-.34-.06-.67-.17-.97l3.56-3.51a.88.88 0 0 0 0-1.25.92.92 0 0 0-1.27 0l-3.35 3.31a3.1 3.1 0 0 0-1.85-.61l-.28.01-3.57-8.95 3.58-8.43.27.01c1.43 0 2.63-.96 2.98-2.26h5.64c.5 0 .9-.4.9-.88 0-.49-.4-.88-.9-.88h-5.71a3.08 3.08 0 0 0-5.99.99c0 .95.45 1.8 1.15 2.36l-2.86 6.73-4.17-10.49a3.01 3.01 0 0 0 1.02-2.26 3.06 3.06 0 0 0-3.08-3.03 3.06 3.06 0 0 0-3.08 3.03 3 3 0 0 0 .7 1.91l-7.4 11.03a3.14 3.14 0 0 0-2.07.01L4.2 9.9V.88A.9.9 0 0 0 3.3 0C2.8 0 2.4.4 2.4.88v8.68H.9c-.5 0-.9.4-.9.89 0 .48.4.88.9.88h1.5v8.87H.9c-.5 0-.9.4-.9.89 0 .48.4.88.9.88h1.5v9.09H.9c-.5 0-.9.39-.9.88s.4.88.9.88h1.5v8.26c0 .48.4.88.9.88h7.72v1.16c0 .49.4.88.9.88s.9-.39.9-.88v-1.16h9v1.16c0 .49.4.88.9.88s.9-.39.9-.88v-1.16h9.22v1.16c0 .49.4.88.9.88s.9-.39.9-.88v-1.16h9.46c.5 0 .9-.4.9-.88a.9.9 0 0 0-.9-.89zM33.41 31c.71 0 1.29.56 1.29 1.26s-.58 1.27-1.29 1.27c-.7 0-1.28-.57-1.28-1.27 0-.7.57-1.26 1.28-1.26zm0-23.43c.71 0 1.29.57 1.29 1.27 0 .69-.58 1.26-1.29 1.26-.7 0-1.28-.57-1.28-1.26 0-.7.57-1.27 1.28-1.27zM11.7 33.42c-.71 0-1.29-.57-1.29-1.26 0-.7.58-1.27 1.29-1.27.7 0 1.28.57 1.28 1.27 0 .69-.57 1.26-1.28 1.26zm10.8 2.37c-.7 0-1.29-.57-1.29-1.27 0-.7.58-1.27 1.29-1.27.7 0 1.29.57 1.29 1.27 0 .7-.58 1.27-1.29 1.27zm-.1-31.87c.7 0 1.28.56 1.28 1.26s-.58 1.27-1.29 1.27c-.7 0-1.28-.57-1.28-1.27 0-.7.57-1.26 1.28-1.26zM11.58 19.71c.7 0 1.29.57 1.29 1.27 0 .7-.58 1.27-1.3 1.27-.7 0-1.28-.57-1.28-1.27 0-.7.58-1.27 1.29-1.27zm-7.4-6.89l4.92 6.37c-.38.5-.6 1.12-.6 1.79a3.06 3.06 0 0 0 3.08 3.03c1.7 0 3.08-1.36 3.08-3.03 0-.68-.23-1.31-.61-1.81l7.43-11.09a3 3 0 0 0 1.33.1l4.8 12.09-4.77 11.24a3.09 3.09 0 0 0-3.04 1.54l-5.06-1.26a3.07 3.07 0 0 0-3.05-2.67 3.06 3.06 0 0 0-3.08 3.04 3 3 0 0 0 .37 1.43l-4.8 5.25zm38.75 10.6a.9.9 0 0 0-1.27 0l-.71.7a.86.86 0 0 0 0 1.24c.17.18.4.26.63.26.23 0 .46-.08.64-.26l.7-.69a.88.88 0 0 0 0-1.25z"/><path fill="url(#a)" d="M718.1 1590.19h-38.73l4.9-5.35a3.1 3.1 0 0 0 4.18-1.31l4.98 1.24a3.06 3.06 0 0 0 3.07 2.78c1.7 0 3.08-1.36 3.08-3.03 0-.92-.42-1.75-1.08-2.31l4.07-9.58 2.9 7.28a3.03 3.03 0 0 0-1.14 2.35 3.07 3.07 0 0 0 3.08 3.04c1.7 0 3.08-1.37 3.08-3.04 0-.34-.06-.67-.17-.97l3.56-3.51a.88.88 0 0 0 0-1.25.92.92 0 0 0-1.27 0l-3.35 3.31a3.1 3.1 0 0 0-1.85-.61l-.28.01-3.57-8.95 3.58-8.43.27.01c1.43 0 2.63-.96 2.98-2.26h5.64c.5 0 .9-.4.9-.88 0-.49-.4-.88-.9-.88h-5.71a3.08 3.08 0 0 0-5.99.99c0 .95.45 1.8 1.15 2.36l-2.86 6.73-4.17-10.49a3.01 3.01 0 0 0 1.02-2.26 3.06 3.06 0 0 0-3.08-3.03 3.06 3.06 0 0 0-3.08 3.03 3 3 0 0 0 .7 1.91l-7.4 11.03a3.14 3.14 0 0 0-2.07.01l-6.35-8.23v-9.02a.9.9 0 0 0-.9-.88c-.49 0-.89.4-.89.88v8.68h-1.5c-.5 0-.9.4-.9.89 0 .48.4.88.9.88h1.5v8.87h-1.5c-.5 0-.9.4-.9.89 0 .48.4.88.9.88h1.5v9.09h-1.5c-.5 0-.9.39-.9.88s.4.88.9.88h1.5v8.26c0 .48.4.88.9.88h7.72v1.16c0 .49.4.88.9.88s.9-.39.9-.88v-1.16h9v1.16c0 .49.4.88.9.88s.9-.39.9-.88v-1.16h9.22v1.16c0 .49.4.88.9.88s.9-.39.9-.88v-1.16h9.46c.5 0 .9-.4.9-.88a.9.9 0 0 0-.9-.89zm-10.69-9.19c.71 0 1.29.56 1.29 1.26s-.58 1.27-1.29 1.27c-.7 0-1.28-.57-1.28-1.27 0-.7.57-1.26 1.28-1.26zm0-23.43c.71 0 1.29.57 1.29 1.27 0 .69-.58 1.26-1.29 1.26-.7 0-1.28-.57-1.28-1.26 0-.7.57-1.27 1.28-1.27zm-21.71 25.85c-.71 0-1.29-.57-1.29-1.26 0-.7.58-1.27 1.29-1.27.7 0 1.28.57 1.28 1.27 0 .69-.57 1.26-1.28 1.26zm10.8 2.37c-.7 0-1.29-.57-1.29-1.27 0-.7.58-1.27 1.29-1.27.7 0 1.29.57 1.29 1.27 0 .7-.58 1.27-1.29 1.27zm-.1-31.87c.7 0 1.28.56 1.28 1.26s-.58 1.27-1.29 1.27c-.7 0-1.28-.57-1.28-1.27 0-.7.57-1.26 1.28-1.26zm-10.81 15.79c.7 0 1.28.57 1.28 1.27 0 .7-.57 1.27-1.28 1.27-.71 0-1.29-.57-1.29-1.27 0-.7.58-1.27 1.29-1.27zm-7.4-6.89l4.92 6.37c-.38.5-.6 1.12-.6 1.79a3.06 3.06 0 0 0 3.08 3.03c1.7 0 3.08-1.36 3.08-3.03 0-.68-.23-1.31-.61-1.81l7.43-11.09a3 3 0 0 0 1.33.1l4.8 12.09-4.77 11.24a3.09 3.09 0 0 0-3.04 1.54l-5.06-1.26a3.07 3.07 0 0 0-3.05-2.67 3.06 3.06 0 0 0-3.08 3.04 3 3 0 0 0 .37 1.43l-4.8 5.25zm38.75 10.6a.9.9 0 0 0-1.27 0l-.71.7a.86.86 0 0 0 0 1.24c.17.18.4.26.63.26.23 0 .46-.08.64-.26l.7-.69a.88.88 0 0 0 0-1.25z" transform="translate(-674 -1550)"/></svg>