<svg xmlns="http://www.w3.org/2000/svg" width="45" height="45" viewBox="0 0 45 45"><defs><linearGradient id="a" x1="961.74" x2="1029.24" y1="1548.49" y2="1548.49" gradientUnits="userSpaceOnUse"><stop offset="0" stop-color="#fb9027"/><stop offset="1" stop-color="#afeb45"/></linearGradient></defs><path d="M11.25 24h4.5c.41 0 .75-.34.75-.75a.75.75 0 0 0-.75-.75H12V21h.75c.41 0 .75-.34.75-.75a.75.75 0 0 0-.75-.75H12V18h.75c.41 0 .75-.34.75-.75a.75.75 0 0 0-.75-.75H12V15h3.75c.41 0 .75-.34.75-.75a.75.75 0 0 0-.75-.75H12V12h.75c.41 0 .75-.33.75-.75a.75.75 0 0 0-.75-.75H12V9h.75c.41 0 .75-.33.75-.75a.75.75 0 0 0-.75-.75H12V6h3.75c.41 0 .75-.33.75-.75a.75.75 0 0 0-.75-.75H12v-3h10.5v21.75c0 .41.34.75.75.75s.75-.34.75-.75V.75a.75.75 0 0 0-.75-.75h-12a.75.75 0 0 0-.75.75v22.5c0 .41.34.75.75.75zM.75 24c.41 0 .75-.34.75-.75V3.75c0-1.09 1.16-2.25 2.25-2.25h4.5c.41 0 .75-.33.75-.75A.75.75 0 0 0 8.25 0h-4.5A3.95 3.95 0 0 0 0 3.75v19.5c0 .41.34.75.75.75zm33-15a.76.76 0 0 0-.75.75v13.5c0 .41.34.75.75.75s.75-.34.75-.75V9.75a.76.76 0 0 0-.75-.75zm-4.5.75v13.5c0 .41.34.75.75.75s.75-.34.75-.75V9.75A.76.76 0 0 0 30 9a.76.76 0 0 0-.75.75zm1.5 33.75H30v-.75a.76.76 0 0 0-.75-.75.76.76 0 0 0-.75.75v.75H27v-.75a.75.75 0 0 0-.75-.75.75.75 0 0 0-.75.75v.75H24v-.75a.75.75 0 0 0-.75-.75.75.75 0 0 0-.75.75v.75H21v-.75a.75.75 0 0 0-.75-.75.75.75 0 0 0-.75.75v.75H18v-.75a.75.75 0 0 0-.75-.75.75.75 0 0 0-.75.75v.75H15v-.75a.75.75 0 0 0-.75-.75.75.75 0 0 0-.75.75v.75H12v-.75a.75.75 0 0 0-.75-.75.75.75 0 0 0-.75.75v.75H9v-.75a.75.75 0 0 0-.75-.75.75.75 0 0 0-.75.75v.75H6v-.75a.75.75 0 0 0-.75-.75.75.75 0 0 0-.75.75v.75h-.75a.75.75 0 0 0-.75.75c0 .41.34.75.75.75h27c.41 0 .75-.34.75-.75a.76.76 0 0 0-.75-.75zM26.25 24c.41 0 .75-.34.75-.75V6.97l3-4.8L32.4 6h-3.15a.76.76 0 0 0-.75.75c0 .41.34.75.75.75h4.5c.27 0 .52-.15.66-.39a.76.76 0 0 0-.02-.76l-3.75-6c-.28-.43-1-.43-1.28 0l-3.75 6a.77.77 0 0 0-.11.4v16.5c0 .41.34.75.75.75zm15-24h-7.5a.75.75 0 1 0 0 1.5h7.5c1.09 0 2.25 1.16 2.25 2.25v27c0 1.09-1.16 2.25-2.25 2.25H3.75c-1.1 0-2.25-1.16-2.25-2.25V27h39.75c.41 0 .75-.34.75-.75a.76.76 0 0 0-.75-.75H.75a.75.75 0 0 0-.75.75v4.5a3.95 3.95 0 0 0 3.75 3.75h37.5A3.95 3.95 0 0 0 45 30.75v-27A3.95 3.95 0 0 0 41.25 0zM21 30a1.5 1.5 0 1 0 3 0 1.5 1.5 0 0 0-3 0zm5.25 10.5c.41 0 .75-.34.75-.75v-3a.75.75 0 0 0-.75-.75.75.75 0 0 0-.75.75v3c0 .41.34.75.75.75zm-6.75-.75v-3a.75.75 0 0 0-.75-.75.75.75 0 0 0-.75.75v3c0 .41.34.75.75.75s.75-.34.75-.75zm19.5.75h-1.5a3 3 0 0 0-3 3v.75c0 .41.34.75.75.75h6c.41 0 .75-.34.75-.75v-.75a3 3 0 0 0-3-3zm-3 3c0-.83.67-1.5 1.5-1.5H39c.83 0 1.5.67 1.5 1.5z"/><path fill="url(#a)" d="M984.25 1574h4.5c.41 0 .75-.34.75-.75a.75.75 0 0 0-.75-.75H985v-1.5h.75c.41 0 .75-.34.75-.75a.75.75 0 0 0-.75-.75H985v-1.5h.75c.41 0 .75-.34.75-.75a.75.75 0 0 0-.75-.75H985v-1.5h3.75c.41 0 .75-.34.75-.75a.75.75 0 0 0-.75-.75H985v-1.5h.75c.41 0 .75-.33.75-.75a.75.75 0 0 0-.75-.75H985v-1.5h.75c.41 0 .75-.33.75-.75a.75.75 0 0 0-.75-.75H985v-1.5h3.75c.41 0 .75-.33.75-.75a.75.75 0 0 0-.75-.75H985v-3h10.5v21.75c0 .41.34.75.75.75s.75-.34.75-.75v-22.5a.75.75 0 0 0-.75-.75h-12a.75.75 0 0 0-.75.75v22.5c0 .41.34.75.75.75zm-10.5 0c.41 0 .75-.34.75-.75v-19.5c0-1.09 1.16-2.25 2.25-2.25h4.5c.41 0 .75-.33.75-.75a.75.75 0 0 0-.75-.75h-4.5a3.95 3.95 0 0 0-3.75 3.75v19.5c0 .41.34.75.75.75zm33-15a.76.76 0 0 0-.75.75v13.5c0 .41.34.75.75.75s.75-.34.75-.75v-13.5a.76.76 0 0 0-.75-.75zm-4.5.75v13.5c0 .41.34.75.75.75s.75-.34.75-.75v-13.5a.76.76 0 0 0-.75-.75.76.76 0 0 0-.75.75zm1.5 33.75h-.75v-.75a.76.76 0 0 0-.75-.75.76.76 0 0 0-.75.75v.75h-1.5v-.75a.75.75 0 0 0-.75-.75.75.75 0 0 0-.75.75v.75H997v-.75a.75.75 0 0 0-.75-.75.75.75 0 0 0-.75.75v.75H994v-.75a.75.75 0 0 0-.75-.75.75.75 0 0 0-.75.75v.75H991v-.75a.75.75 0 0 0-.75-.75.75.75 0 0 0-.75.75v.75H988v-.75a.75.75 0 0 0-.75-.75.75.75 0 0 0-.75.75v.75H985v-.75a.75.75 0 0 0-.75-.75.75.75 0 0 0-.75.75v.75H982v-.75a.75.75 0 0 0-.75-.75.75.75 0 0 0-.75.75v.75H979v-.75a.75.75 0 0 0-.75-.75.75.75 0 0 0-.75.75v.75h-.75a.75.75 0 0 0-.75.75c0 .41.34.75.75.75h27c.41 0 .75-.34.75-.75a.76.76 0 0 0-.75-.75zm-4.5-19.5c.41 0 .75-.34.75-.75v-16.28l3-4.8 2.4 3.83h-3.15a.76.76 0 0 0-.75.75c0 .41.34.75.75.75h4.5c.27 0 .52-.15.66-.39a.76.76 0 0 0-.02-.76l-3.75-6c-.28-.43-1-.43-1.28 0l-3.75 6a.77.77 0 0 0-.11.4v16.5c0 .41.34.75.75.75zm15-24h-7.5a.75.75 0 1 0 0 1.5h7.5c1.09 0 2.25 1.16 2.25 2.25v27c0 1.09-1.16 2.25-2.25 2.25h-37.5c-1.1 0-2.25-1.16-2.25-2.25V1577h39.75c.41 0 .75-.34.75-.75a.76.76 0 0 0-.75-.75h-40.5a.75.75 0 0 0-.75.75v4.5a3.95 3.95 0 0 0 3.75 3.75h37.5a3.95 3.95 0 0 0 3.75-3.75v-27a3.95 3.95 0 0 0-3.75-3.75zM994 1580a1.5 1.5 0 1 0 3 0 1.5 1.5 0 0 0-3 0zm5.25 10.5c.41 0 .75-.34.75-.75v-3a.75.75 0 0 0-.75-.75.75.75 0 0 0-.75.75v3c0 .41.34.75.75.75zm-6.75-.75v-3a.75.75 0 0 0-.75-.75.75.75 0 0 0-.75.75v3c0 .41.34.75.75.75s.75-.34.75-.75zm19.5.75h-1.5a3 3 0 0 0-3 3v.75c0 .41.34.75.75.75h6c.41 0 .75-.34.75-.75v-.75a3 3 0 0 0-3-3zm-3 3c0-.83.67-1.5 1.5-1.5h1.5c.83 0 1.5.67 1.5 1.5z" transform="translate(-973 -1550)"/></svg>