<svg xmlns="http://www.w3.org/2000/svg" width="51" height="46" viewBox="0 0 51 46"><defs><linearGradient id="a" x1="1260.24" x2="1336.74" y1="1547.46" y2="1547.46" gradientUnits="userSpaceOnUse"><stop offset="0" stop-color="#6ceb45"/><stop offset="1" stop-color="#4cceef"/></linearGradient></defs><path d="M50.01 0H.99A1 1 0 0 0 0 1v12.09a1 1 0 0 0 .99 1h49.02a1 1 0 0 0 .99-1V1a1 1 0 0 0-.99-1zM1.98 12.09V1.99h30.93v10.1zm32.9 0V1.99h14.14v10.1zm5.69-2.18c.88 0 1.68-.35 2.27-.93l2.54 1.48c.16.09.33.14.49.14.35 0 .68-.18.86-.5.27-.48.11-1.09-.36-1.37l-2.59-1.5a3.3 3.3 0 0 0-3.21-3.93 3.3 3.3 0 0 0 0 6.61zm0-4.61c.71 0 1.29.59 1.29 1.31a1.3 1.3 0 0 1-1.29 1.31 1.3 1.3 0 0 1-1.3-1.31c0-.72.58-1.31 1.3-1.31zM5.12 8.1h11.12a1 1 0 1 0 0-1.99H5.12a.99.99 0 0 0-.98 1c0 .55.44.99.98.99zm15.32 0h8.27c.55 0 .99-.44.99-.99 0-.56-.44-1-.99-1h-8.27a.99.99 0 0 0-.99 1c0 .55.44.99.99.99zm-4.2 14.34a1 1 0 0 0 0-2H5.12a1 1 0 0 0-.98 1 1 1 0 0 0 .98 1zm12.47 0a1 1 0 0 0 .99-1 1 1 0 0 0-.99-1h-8.27a1 1 0 0 0-.99 1 1 1 0 0 0 .99 1zm-27.48-2a.95.95 0 0 0-.69.3 1 1 0 0 0 0 1.41 1 1 0 0 0 .69.29 1 1 0 0 0 .99-1c0-.26-.1-.52-.29-.7a.96.96 0 0 0-.7-.3zm48.29 4.99H4.57a1 1 0 0 0-.99 1 1 1 0 0 0 .99 1h44.95a1 1 0 0 0 0-2zm0 3.49H4.57a1 1 0 0 0-.99 1 1 1 0 0 0 .99 1h44.95a1 1 0 0 0 0-2zm-33.28 8.6a1 1 0 1 0 0-1.99H5.12a.99.99 0 0 0-.98 1c0 .55.44.99.98.99zm12.47 0c.55 0 .99-.44.99-.99 0-.56-.44-1-.99-1h-8.27a.99.99 0 0 0-.99 1c0 .55.44.99.99.99zM1.23 35.53a.99.99 0 0 0-.98 1c0 .26.1.52.29.7.18.19.44.29.69.29.26 0 .52-.1.7-.29a.97.97 0 0 0 .29-.7.99.99 0 0 0-.99-1zm48.29 4.98H4.57a1 1 0 0 0-.99 1 1 1 0 0 0 .99 1h44.95a1 1 0 0 0 0-2zm0 3.5H4.57a1 1 0 1 0 0 1.99h44.95a1 1 0 0 0 .99-1 1 1 0 0 0-.99-.99z"/><path fill="url(#a)" d="M1323.01 1549h-49.02a1 1 0 0 0-.99 1v12.09a1 1 0 0 0 .99 1h49.02a1 1 0 0 0 .99-1V1550a1 1 0 0 0-.99-1zm-48.03 12.09v-10.1h30.93v10.1zm32.9 0v-10.1h14.14v10.1zm5.69-2.18c.88 0 1.68-.35 2.27-.93l2.54 1.48c.16.09.33.14.49.14.35 0 .68-.18.86-.5.27-.48.11-1.09-.36-1.37l-2.59-1.5a3.3 3.3 0 0 0-3.21-3.93 3.3 3.3 0 0 0 0 6.61zm0-4.61c.71 0 1.29.59 1.29 1.31a1.3 1.3 0 0 1-1.29 1.31 1.3 1.3 0 0 1-1.3-1.31c0-.72.58-1.31 1.3-1.31zm-35.45 2.8h11.12a1 1 0 1 0 0-1.99h-11.12a.99.99 0 0 0-.98 1c0 .55.44.99.98.99zm15.32 0h8.27c.55 0 .99-.44.99-.99 0-.56-.44-1-.99-1h-8.27a.99.99 0 0 0-.99 1c0 .55.44.99.99.99zm-4.2 14.34a1 1 0 0 0 0-2h-11.12a1 1 0 0 0-.98 1 1 1 0 0 0 .98 1zm12.47 0a1 1 0 0 0 .99-1 1 1 0 0 0-.99-1h-8.27a1 1 0 0 0-.99 1 1 1 0 0 0 .99 1zm-27.48-2a.95.95 0 0 0-.69.3 1 1 0 0 0 0 1.41 1 1 0 0 0 .69.29 1 1 0 0 0 .99-1c0-.26-.1-.52-.29-.7a.96.96 0 0 0-.7-.3zm48.29 4.99h-44.95a1 1 0 0 0-.99 1 1 1 0 0 0 .99 1h44.95a1 1 0 0 0 0-2zm0 3.49h-44.95a1 1 0 0 0-.99 1 1 1 0 0 0 .99 1h44.95a1 1 0 0 0 0-2zm-33.28 8.6a1 1 0 1 0 0-1.99h-11.12a.99.99 0 0 0-.98 1c0 .55.44.99.98.99zm12.47 0c.55 0 .99-.44.99-.99 0-.56-.44-1-.99-1h-8.27a.99.99 0 0 0-.99 1c0 .55.44.99.99.99zm-27.48-1.99a.99.99 0 0 0-.98 1c0 .26.1.52.29.7.18.19.44.29.69.29.26 0 .52-.1.7-.29a.97.97 0 0 0 .29-.7.99.99 0 0 0-.99-1zm48.29 4.98h-44.95a1 1 0 0 0-.99 1 1 1 0 0 0 .99 1h44.95a1 1 0 0 0 0-2zm0 3.5h-44.95a1 1 0 1 0 0 1.99h44.95a1 1 0 0 0 .99-1 1 1 0 0 0-.99-.99z" transform="translate(-1273 -1549)"/></svg>