<svg xmlns="http://www.w3.org/2000/svg" width="55" height="42" viewBox="0 0 55 42"><path fill="#00deff" d="M54.22 26.7L47.2 4.4A6.12 6.12 0 0 0 39.5.3c-.77.2-1.21 1-.97 1.8s1.05 1.2 1.82 1c1.7-.5 3.51.4 4.03 2.1l5.02 16a11.04 11.04 0 0 0-16.3 8.3h-9.23a11.04 11.04 0 0 0-16.3-8.1l5.09-16.2a3.22 3.22 0 0 1 4.03-2.1c.77.2 1.6-.2 1.82-1 .24-.8-.2-1.6-.97-1.8-3.25-1-6.7.8-7.7 4.1l-7 22.3-.04.2a10.99 10.99 0 0 0 21.07 5.6h9.3c.8 5.2 5.36 9.3 10.84 9.3a10.99 10.99 0 0 0 10.2-15.1zM13 39.1A8.06 8.06 0 0 1 4.94 31c0-4.4 3.61-8.1 8.06-8.1 4.44 0 8.05 3.7 8.05 8.1 0 4.5-3.62 8.1-8.05 8.1zm31.03-.2a8.06 8.06 0 0 1-8.05-8.1c0-4.4 3.61-8.1 8.05-8.1 4.43 0 8.05 3.7 8.05 8.1 0 4.5-3.61 8.1-8.05 8.1z"/><path fill="#ff0042" d="M52.22 26.7L45.2 4.4A6.12 6.12 0 0 0 37.5.3c-.77.2-1.21 1-.97 1.8s1.05 1.2 1.82 1c1.7-.5 3.51.4 4.03 2.1l5.02 16a11.04 11.04 0 0 0-16.3 8.3h-9.23a11.04 11.04 0 0 0-16.3-8.1l5.09-16.2a3.22 3.22 0 0 1 4.03-2.1c.77.2 1.6-.2 1.82-1 .24-.8-.2-1.6-.97-1.8-3.25-1-6.7.8-7.7 4.1l-7 22.3-.04.2a10.99 10.99 0 0 0 21.07 5.6h9.3c.8 5.2 5.36 9.3 10.84 9.3a10.99 10.99 0 0 0 10.2-15.1zM11 39.1A8.06 8.06 0 0 1 2.94 31c0-4.4 3.61-8.1 8.06-8.1 4.44 0 8.05 3.7 8.05 8.1 0 4.5-3.62 8.1-8.05 8.1zm31.03-.2a8.06 8.06 0 0 1-8.05-8.1c0-4.4 3.61-8.1 8.05-8.1 4.43 0 8.05 3.7 8.05 8.1 0 4.5-3.61 8.1-8.05 8.1z"/><path fill="#1d1d1d" d="M53.22 26.7L46.2 4.4A6.12 6.12 0 0 0 38.5.3c-.77.2-1.21 1-.97 1.8s1.05 1.2 1.82 1c1.7-.5 3.51.4 4.03 2.1l5.02 16a11.04 11.04 0 0 0-16.3 8.3h-9.23a11.04 11.04 0 0 0-16.3-8.1l5.09-16.2a3.22 3.22 0 0 1 4.03-2.1c.77.2 1.6-.2 1.82-1 .24-.8-.2-1.6-.97-1.8-3.25-1-6.7.8-7.7 4.1l-7 22.3-.04.2a10.99 10.99 0 0 0 21.07 5.6h9.3c.8 5.2 5.36 9.3 10.84 9.3a10.99 10.99 0 0 0 10.2-15.1zM12 39.1A8.06 8.06 0 0 1 3.94 31c0-4.4 3.61-8.1 8.06-8.1 4.44 0 8.05 3.7 8.05 8.1 0 4.5-3.62 8.1-8.05 8.1zm31.03-.2a8.06 8.06 0 0 1-8.05-8.1c0-4.4 3.61-8.1 8.05-8.1 4.43 0 8.05 3.7 8.05 8.1 0 4.5-3.61 8.1-8.05 8.1z"/></svg>