<svg xmlns="http://www.w3.org/2000/svg" width="56" height="56" viewBox="0 0 56 56"><path fill="#1a30ff" d="M55.66 53.5L29.3 34.8V23.2l.78-.6c.58-.5.92-1.2.94-1.9a2.53 2.53 0 0 0-1.72-2.5V3.3h10.81l-1.14 2.3c-.11.2-.11.5 0 .7l1.14 2.3h-8.17c-.44 0-.8.4-.8.8 0 .5.36.8.8.8h9.47c.28 0 .54-.1.69-.4.15-.2.16-.5.04-.7L40.59 6l1.55-3.1c.12-.3.1-.6-.04-.8-.15-.2-.4-.4-.69-.4h-12.1V.8c0-.4-.37-.8-.81-.8-.45 0-.8.4-.8.8v17.4c-.3.1-.6.3-.85.5l-2.26 1.8-1.87-2.3c-.48-.6-1.2-1-1.97-1a.9.9 0 0 1-.92-.9v-.9c1.05-.8 1.72-2 1.72-3.4v-1.7c0-1.9-1.52-3.4-3.39-3.4h-1.72a3.38 3.38 0 0 0-3.39 3.4V12c0 1.4.68 2.6 1.73 3.4v1.2c0 .1-.02.1-.04.1l-2.01 1a2.5 2.5 0 0 0-1.4 2.3v8.2c0 .8.19 1.6.54 2.3l.81 1.6c.25.5.37 1 .37 1.6v11.5L1.34 53.5a.9.9 0 0 0-.2 1.2c.26.3.77.4 1.13.2L28.5 36.2l26.23 18.7c.14.1.3.1.46.1.25 0 .5-.1.66-.3a.9.9 0 0 0-.2-1.2zm-41-41.5v-1.7c0-1 .8-1.8 1.78-1.8h1.72c.98 0 1.78.8 1.78 1.8V12c0 1.5-1.18 2.6-2.64 2.6a2.58 2.58 0 0 1-2.64-2.6zm3.83 5.4l-1.15 1.2h-.08l-1.1-1.1c.15-.3.23-.6.23-.9v-.4h1.83v.1c0 .4.1.8.27 1.1zm9.2 17.4l-5.28 3.8v-13c.46.4.98.5 1.54.6h.66c.66 0 1.3-.3 1.85-.7l1.23-1zm1.38-13.5l-3.62 2.9c-.29.3-.62.4-.96.4h-.36c-.47 0-.9-.3-1.2-.6l-.7-.9c-.2-.3-.56-.4-.89-.3-.32.1-.54.4-.54.8v16.1L18.97 41v-7.5c0-.4-.36-.8-.8-.8-.45 0-.81.4-.81.8v8.7l-2.7 1.9V33.7c0-.8-.18-1.6-.53-2.3l-.82-1.6c-.24-.5-.37-1.1-.37-1.6V20c0-.4.2-.7.51-.9l1.4-.7 1.28 1.3c.31.3.73.5 1.17.5.45 0 .87-.2 1.18-.5l1.15-1.1c.33.1.72.2 1.12.2.28 0 .54.2.71.4l2.37 2.9c.28.4.79.4 1.14.2l2.88-2.3c.39-.4.94-.4 1.26-.1.2.2.31.5.3.7 0 .3-.13.6-.34.7zM41.1 47.5L33.27 42a.81.81 0 0 0-1.12.1.9.9 0 0 0 .19 1.2l7.83 5.5c.14.1.3.2.46.2.25 0 .5-.1.66-.4.26-.3.17-.8-.2-1.1zm-10.42-7.4l-1.72-1.2c-.36-.3-.86-.2-1.12.2-.26.4-.17.9.2 1.1l1.71 1.2c.14.1.3.2.47.2.25 0 .5-.1.66-.4.25-.3.17-.8-.2-1.1z"/></svg>