<svg xmlns="http://www.w3.org/2000/svg" width="75" height="69" viewBox="0 0 75 69"><path fill="#fd3406" d="M71.48 10.71A3.55 3.55 0 0 0 68 14.72l-13 6.59a5.84 5.84 0 0 0-4.6-2.28 5.91 5.91 0 0 0-5.87 5.95c0 1.31.42 2.51 1.12 3.49l-6.67 7.39-.1.12a3.45 3.45 0 0 0-3.2.23l-7.76-6.45c.13-.38.2-.78.2-1.21a3.55 3.55 0 0 0-3.51-3.57 3.6 3.6 0 1 0-2.46 6.12l-5.4 11.74-.34-.01a3.55 3.55 0 0 0-3.47 4.13l-7.08 3.92a3.46 3.46 0 0 0-2.34-.91A3.54 3.54 0 0 0 0 53.53a3.55 3.55 0 0 0 3.52 3.57 3.55 3.55 0 0 0 3.47-4.13l7.07-3.92c.62.57 1.44.92 2.35.92a3.6 3.6 0 1 0 2.46-6.12l5.4-11.75.34.02c.67 0 1.29-.19 1.82-.52l7.76 6.45a3.58 3.58 0 0 0 3.31 4.78c1.94 0 3.52-1.6 3.52-3.57a3.6 3.6 0 0 0-.42-1.69.78.78 0 0 0 .1-.1l6.68-7.39c.88.54 1.9.85 3.01.85a5.91 5.91 0 0 0 5.66-7.49l13-6.6c.63.62 1.49 1 2.43 1 1.94 0 3.52-1.6 3.52-3.56a3.55 3.55 0 0 0-3.52-3.57zM3.52 54.72c-.65 0-1.18-.53-1.18-1.19 0-.65.53-1.19 1.18-1.19.64 0 1.17.54 1.17 1.19 0 .66-.53 1.19-1.17 1.19zm12.89-7.13c-.65 0-1.18-.54-1.18-1.19 0-.66.53-1.19 1.18-1.19.64 0 1.17.53 1.17 1.19 0 .65-.53 1.19-1.17 1.19zm8.2-17.85c-.65 0-1.17-.53-1.17-1.19 0-.65.52-1.19 1.17-1.19.64 0 1.17.54 1.17 1.19 0 .66-.53 1.19-1.17 1.19zM37.5 40.45c-.65 0-1.17-.54-1.17-1.19 0-.66.52-1.19 1.17-1.19.65 0 1.17.53 1.17 1.19 0 .65-.52 1.19-1.17 1.19zm12.9-11.9a3.55 3.55 0 0 1-3.52-3.57 3.55 3.55 0 0 1 3.51-3.57c1.94 0 3.52 1.6 3.52 3.57a3.55 3.55 0 0 1-3.52 3.57zm21.08-13.08c-.64 0-1.17-.54-1.17-1.19 0-.66.53-1.19 1.17-1.19.65 0 1.18.53 1.18 1.19 0 .65-.53 1.19-1.18 1.19zM50.4 23.79a1.18 1.18 0 0 0-1.17 1.19 1.19 1.19 0 0 0 1.17 1.19 1.19 1.19 0 0 0 1.17-1.19 1.18 1.18 0 0 0-1.17-1.19zm0-7.13a1.18 1.18 0 0 0 1.17-1.19c0-.32-.12-.62-.34-.85a1.17 1.17 0 0 0-2 .85 1.18 1.18 0 0 0 1.17 1.19zm0-4.76a1.18 1.18 0 0 0 1.17-1.19 1.19 1.19 0 0 0-1.17-1.19 1.19 1.19 0 0 0-1.17 1.19 1.18 1.18 0 0 0 1.17 1.19zm0-4.76a1.19 1.19 0 0 0 1.17-1.19 1.18 1.18 0 0 0-1.17-1.19 1.18 1.18 0 0 0-1.17 1.19 1.18 1.18 0 0 0 1.17 1.19zm0-4.76a1.18 1.18 0 0 0 1.17-1.19A1.18 1.18 0 0 0 50.4 0a1.18 1.18 0 0 0-1.17 1.19 1.18 1.18 0 0 0 1.17 1.19zm0 45.21c-.3 0-.61.12-.83.34a1.2 1.2 0 0 0 0 1.69c.22.22.52.35.83.35a1.18 1.18 0 0 0 1.17-1.19c0-.32-.12-.62-.34-.85a1.17 1.17 0 0 0-.83-.34zm0-4.76c-.3 0-.61.12-.83.35a1.2 1.2 0 0 0 0 1.68c.22.22.52.35.83.35a1.18 1.18 0 0 0 1.17-1.19 1.19 1.19 0 0 0-1.17-1.19zm0-4.76a1.18 1.18 0 0 0-1.17 1.19 1.18 1.18 0 0 0 1.17 1.19 1.18 1.18 0 0 0 1.17-1.19 1.19 1.19 0 0 0-1.17-1.19zm0-4.76a1.18 1.18 0 0 0-1.17 1.19 1.18 1.18 0 0 0 1.17 1.19 1.18 1.18 0 0 0 1.17-1.19 1.18 1.18 0 0 0-1.17-1.19zm0 33.31a1.18 1.18 0 0 0-1.17 1.19A1.18 1.18 0 0 0 50.39 69a1.18 1.18 0 0 0 1.17-1.19 1.18 1.18 0 0 0-1.17-1.19zm0-4.76a1.18 1.18 0 0 0-1.17 1.19 1.19 1.19 0 0 0 1.17 1.19 1.19 1.19 0 0 0 1.17-1.19 1.18 1.18 0 0 0-1.17-1.19zm0-4.76a1.18 1.18 0 0 0-1.17 1.19c0 .32.12.62.34.85.22.22.52.34.83.34.31 0 .61-.12.83-.34a1.2 1.2 0 0 0 0-1.69 1.18 1.18 0 0 0-.83-.35zm0-4.76a1.18 1.18 0 0 0-1.17 1.19c0 .32.13.62.34.84.22.23.52.35.83.35.3 0 .61-.12.83-.35a1.2 1.2 0 0 0-.83-2.03z"/></svg>