<svg xmlns="http://www.w3.org/2000/svg" width="56" height="60" viewBox="0 0 56 60"><path fill="#fff" d="M54.84 57.7h-2.53V20.3a3.1 3.1 0 0 0-3.1-3.1h-5.67a3.1 3.1 0 0 0-3.1 3.1v37.4h-6.43V37.2c0-1.7-1.4-3.1-3.11-3.1h-5.66a3.11 3.11 0 0 0-3.11 3.1v20.5H15.7V47.1c0-1.8-1.39-3.2-3.11-3.2H6.93c-1.71 0-3.1 1.4-3.1 3.2v10.6H1.16c-.64 0-1.16.5-1.16 1.1 0 .7.52 1.2 1.16 1.2h53.68c.64 0 1.16-.5 1.16-1.2 0-.6-.52-1.1-1.16-1.1zm-48.7 0V47.1c0-.5.35-.8.79-.8h5.66c.44 0 .8.3.8.8v10.6zm25.55 0h-7.25V37.2c0-.4.36-.8.8-.8h5.66c.44 0 .79.4.79.8zm11.06 0V20.3c0-.4.35-.8.79-.8h5.67c.43 0 .79.4.79.8v37.4zm9.56-56.5c.01-.3-.1-.6-.34-.9-.24-.2-.56-.3-.87-.3h-7.05c-.64 0-1.15.5-1.15 1.2 0 .6.51 1.1 1.15 1.1h4.32L36.95 13.9l-4.31-4.3a.94.94 0 0 0-.81-.4c-.31 0-.6.1-.82.4l-20.77 21c-.45.5-.45 1.2 0 1.7.23.2.52.3.82.3.3 0 .59-.1.82-.3L31.83 12l4.3 4.4c.45.5 1.18.5 1.64 0L50 4v4c0 .6.52 1.1 1.16 1.1.63 0 1.15-.5 1.15-1.1V1.3v-.1zM6.01 35.5a1.16 1.16 0 0 0 2.31 0c0-.6-.52-1.1-1.15-1.1-.64 0-1.16.5-1.16 1.1z"/></svg>