<svg xmlns="http://www.w3.org/2000/svg" width="59" height="59" viewBox="0 0 59 59"><path d="M55.2 9.71V3.08l2.28 1.71 1.14-1.52L54.26 0 49.9 3.27l1.14 1.52 2.27-1.71v6.63a4.74 4.74 0 0 1-4.74 4.74h-3.79c-3 0-5.53 1.9-6.35 4.74h-1.36l-.03 1.9h1.1v2.95a9.87 9.87 0 0 0-7.49 1.98 6.65 6.65 0 0 0-6.72-1.8v-5.98a5.69 5.69 0 0 0-5.69-5.68h-.94v-1.9h-1.9v1.9h-2.84a5.7 5.7 0 0 0-5.69 5.68v1.9a1.9 1.9 0 0 1-1.9 1.9H3.09l1.7-2.28-1.51-1.14L0 22.98l3.27 4.36 1.52-1.13-1.71-2.28h1.9a3.8 3.8 0 0 0 3.79-3.79v-1.9a3.8 3.8 0 0 1 3.79-3.79h5.68c2.1 0 3.8 1.7 3.8 3.79v6.9c-.42.28-.8.61-1.14.99a8.07 8.07 0 0 0-10.16 6.66 8.08 8.08 0 0 0-4.27 12.4 8.07 8.07 0 0 0 8.57 10.89l.2-.03c.34-.06.69-.13 1.02-.23a7.98 7.98 0 0 0 9.12-.28 8 8 0 0 0 6.6 3.46 7.99 7.99 0 0 0 6.3-3.04 8.06 8.06 0 0 0 11.68-9.7 8.05 8.05 0 0 0 2.27-7.16h.13v-1.9h-.72a8.05 8.05 0 0 0-5.03-4.4 9.9 9.9 0 0 0-6.57-8.3v-3.41a4.74 4.74 0 0 1 4.74-4.74h3.8a6.65 6.65 0 0 0 6.63-6.64zM44.78 33.59l.02.74.74.15a6.14 6.14 0 0 1 4 2.79v1.83h.75a5.97 5.97 0 0 1-1.33 5.46 7.95 7.95 0 0 0-6-3.19l-.12 1.78c3.14.2 5.62 2.47 5.73 6.11a6.16 6.16 0 0 1-9.93 4.64l-.38-.29a6.16 6.16 0 0 1-1.99-4.15l-1.9.12c.14 2.01 1.01 3.86 2.42 5.23a6.1 6.1 0 0 1-4.8 2.29 6.12 6.12 0 0 1-5.5-3.43l-.6-1.18-.93.93a6.14 6.14 0 0 1-6.5 1.38 8.06 8.06 0 0 0 3.59-6.7c0-.2-.03-.4-.04-.6a8 8 0 0 0 4.06-1.99l-1.28-1.4a6.17 6.17 0 0 1-3.14 1.53 8.01 8.01 0 0 0-3.91-4.67l-.88 1.67a6.17 6.17 0 0 1-1.78 11.52l-.07.01a6.17 6.17 0 0 1-6.58-8.71l.26-.54-.39-.47a6.16 6.16 0 0 1 3.52-9.97l.73-.15.03-.74a6.15 6.15 0 0 1 2.83-4.9v1.88h1.9v-2.68a6.27 6.27 0 0 1 3.59.23l.68.26.42-.59.05-.05v4.72h1.9v-6.22a4.7 4.7 0 0 1 5.33 1.07 10.23 10.23 0 0 0-2.73 6.57c0 5.49 4.97 9.95 9.71 9.95v-1.89c-3.79 0-7.82-3.61-7.82-8.06a8.2 8.2 0 0 1 2.16-5.35l.54-.46a8.04 8.04 0 0 1 7.02-2.11v3.66a4.75 4.75 0 0 1-4.74 4.74h-.95v1.89h.95a6.64 6.64 0 0 0 6.63-6.63v-3.08a8.03 8.03 0 0 1 4.73 7.05zM47 39v-2h-3v2zm4-18v-2h-2v2zm-17.13-.81l.96-1.64a4.8 4.8 0 0 1-1.68-1.65l-1.62.99a6.7 6.7 0 0 0 2.34 2.3zm-3.3-5.74v.3l1.9-.21v-2.93h-1.9zM32 9V6h-1v3zm22.63 27.62l.92 1.66a6.7 6.7 0 0 0 2.4-2.24l-1.6-1.02a4.84 4.84 0 0 1-1.72 1.6zm2.48-4.16c0 .11 0 .22-.02.34l1.9.13.01-.47v-2.84h-1.9zM46 21v-2h-3v2zm12.77 3.1l-1.83.5c.11.4.17.81.17 1.23v.94H59v-.94a6.6 6.6 0 0 0-.23-1.73zm-1.61-2.85a6.66 6.66 0 0 0-2.78-1.75l-.58 1.81c.75.24 1.44.67 1.99 1.25zM30.56 3.08h1.9l2.28 1.71 1.13-1.52L31.51 0l-4.36 3.27 1.14 1.52zM17 8V5h-2v3zm0 17v-3h-2v3zm0-6v-3h-2v3zm0 17v-3h-2v3zm-.65-33.63l3.22 2.42 1.14-1.52L16.35 0l-4.36 3.27 1.14 1.52z"/></svg>