<svg xmlns="http://www.w3.org/2000/svg" width="18" height="12" viewBox="0 0 18 12"><path fill="#afafaf" d="M9 1C4.6 1 .36 5.76.19 5.98a.76.76 0 0 0-.19.5c0 .2.06.38.19.52C.37 7.2 4.6 12 8.99 12c4.4 0 8.65-4.78 8.82-5a.75.75 0 0 0 .19-.5c0-.2-.06-.37-.19-.51-.17-.22-4.4-5-8.81-5zm0 9.54c-3.08 0-6.25-2.86-7.44-4.06C2.76 5.28 5.92 2.42 9 2.42s6.25 2.86 7.44 4.06c-1.2 1.2-4.36 4.06-7.44 4.06zM6.73 6.48c0 1.43 1.02 2.6 2.28 2.6 1.27 0 2.3-1.16 2.3-2.6 0-1.45-1.03-2.61-2.3-2.61-1.26 0-2.28 1.18-2.28 2.6zm3.29 0c0 .63-.45 1.16-1.02 1.16-.56 0-1.02-.5-1.02-1.16 0-.65.45-1.17 1.02-1.17.56.02 1.02.53 1.02 1.17z"/></svg>