<svg xmlns="http://www.w3.org/2000/svg" width="60" height="68" viewBox="0 0 60 68"><path fill="#1a30ff" d="M53.6 4.79l-6.43 14.95H42l-2.03-4.39h1.33c2.42 0 4.4-1.94 4.4-4.36V6.58h2.2V0h-6.6v6.58h2.2v4.41c0 1.21-.99 2.17-2.2 2.17h-2.35l-2.8-6.06 3.36-1.68L28.48.71l-2.6 9.05a9.9 9.9 0 0 0-19.8.13 9.9 9.9 0 0 0 4.41 8.2v1.65H7.82l-.17.9a24.62 24.62 0 0 0-.14 8.44L0 42.42l8.29 1.89v13.82h11V68h26.4V52.72a28.56 28.56 0 0 0 12.1-23.48v-4c0-1.51-.14-3.06-.42-4.59l-.16-.91h-2.16L60 7.92V.02zm-10.1-.38v-2.2h2.2v2.2zm-3.92 15.33H35.4l-2-4.39h4.15zM29.9 3.71l4.37 1.87-1.03.5 3.28 7.08H32.4L29.72 7.3l-.98.49zm3.08 16.03h-4.9v-2.17c0-1.21.99-2.22 2.2-2.22h.7zm-4.32-9.46L30 13.21a4.39 4.39 0 0 0-4.1 4.36v2.17h-4.4v-1.65a9.92 9.92 0 0 0 4.2-6.32zM8.29 9.89a7.7 7.7 0 0 1 15.4 0 7.69 7.69 0 0 1-3.85 6.64l-.55.32v2.89h-2.2v-6.76A3.28 3.28 0 0 0 16 6.6a3.28 3.28 0 1 0-1.1 6.38v6.76h-2.2v-2.89l-.55-.32A7.69 7.69 0 0 1 8.3 9.89zm7.7 1.1a1.1 1.1 0 1 1 0-2.2 1.1 1.1 0 0 1 0 2.2zm39.6 14.24v4c.02 8.79-4.33 17.02-11.6 22.01l-.5.33v14.24h-22v-9.87h-11V42.56l-7.13-1.63L9.8 29.49l-.06-.39c-.41-2.4-.43-4.97-.08-7.16h45.7c.16 1.09.24 2.2.24 3.29zm-2.93-5.49h-3.1l5.49-12.75 2.44 1.22zM57.8 5.92l-1.22-.6 1.22-.91zm-39.6 22.6c-1.83 0-3.3-1.1-3.3-3.29h-2.21a5.33 5.33 0 0 0 5.5 5.48c3.03 0 5.5-2.19 5.5-5.48h-2.2c0 2.19-1.48 3.29-3.3 3.29z"/></svg>