<svg xmlns="http://www.w3.org/2000/svg" width="41" height="35" viewBox="0 0 41 35"><path fill="#b9abd7" d="M39.94 19.96l-1.56-.79c-.02-.01-.03-.04-.03-.06v-.97c.8-.6 1.32-1.57 1.32-2.67v-1.35a2.62 2.62 0 0 0-2.59-2.64h-1.32l-.07.01v-1.26c0-.75-.4-1.42-1.06-1.76l-1.55-.79a.06.06 0 0 1-.04-.05v-.97a3.35 3.35 0 0 0 1.33-2.67V2.64A2.62 2.62 0 0 0 31.77 0h-1.32a2.62 2.62 0 0 0-2.6 2.64v1.35c0 1.09.53 2.06 1.34 2.67v.97c0 .02-.02.04-.04.05l-1.55.79a1.97 1.97 0 0 0-1.07 1.76v1.26l-.06-.01h-1.33l-.06.01v-1.26c0-.75-.4-1.42-1.06-1.76l-1.56-.79a.06.06 0 0 1-.03-.05v-.97a3.35 3.35 0 0 0 1.32-2.67V2.64A2.62 2.62 0 0 0 21.16 0h-1.32a2.62 2.62 0 0 0-2.6 2.64v1.35c0 1.09.53 2.06 1.33 2.67v.97c0 .02-.01.04-.03.05l-1.56.79a1.97 1.97 0 0 0-1.06 1.76v1.26l-.06-.01h-1.33l-.06.01v-1.26c0-.75-.41-1.42-1.07-1.76l-1.55-.79a.06.06 0 0 1-.04-.05v-.97a3.35 3.35 0 0 0 1.33-2.67V2.64A2.62 2.62 0 0 0 10.55 0H9.22a2.62 2.62 0 0 0-2.59 2.64v1.35c0 1.09.53 2.06 1.33 2.67v.97c0 .02-.01.04-.04.05l-1.55.79a1.97 1.97 0 0 0-1.06 1.76v1.26l-.07-.01H3.92a2.62 2.62 0 0 0-2.6 2.64v1.35c0 1.1.53 2.07 1.33 2.67v.97c0 .02-.01.05-.03.06l-1.56.79c-.65.33-1.06 1-1.06 1.75v6.66c0 .52.15 1.03.44 1.46l.65 1.01c.16.23.24.5.24.78v2.77c0 .34.27.61.6.61a.6.6 0 0 0 .6-.61v-2.77c0-.52-.15-1.02-.44-1.46l-.66-1a1.47 1.47 0 0 1-.23-.79v-6.66c0-.28.16-.53.4-.66l1.1-.55.99 1.01c.24.25.57.37.89.37.32 0 .65-.12.9-.37l.99-1.01 1.09.55c.25.13.4.38.4.66v6.66c0 .28-.08.55-.23.79l-.66 1c-.29.44-.44.94-.44 1.46v2.77c0 .34.27.61.6.61a.6.6 0 0 0 .6-.61v-2.77c0-.28.09-.55.24-.78l.66-1.01c.28-.43.43-.94.43-1.46v-6.66c0-.75-.4-1.42-1.06-1.75l-1.56-.79c-.02-.01-.03-.04-.03-.06v-.97c.8-.6 1.32-1.57 1.32-2.67v-1.35c0-.99-.53-1.85-1.32-2.3v-1.59c0-.28.15-.54.4-.66L8 9.01l1 1.01c.24.25.56.38.89.38.32 0 .64-.13.9-.38l.99-1.01 1.09.56c.24.12.4.38.4.66v1.59a2.64 2.64 0 0 0-1.33 2.3v1.35c0 1.1.52 2.07 1.33 2.67v.97c0 .02-.02.05-.04.06l-1.55.79c-.66.33-1.07 1-1.07 1.75v6.66c0 .52.15 1.03.44 1.46l.66 1.01c.15.23.23.5.23.78v2.77c0 .34.27.61.6.61a.6.6 0 0 0 .6-.61v-2.77c0-.52-.15-1.02-.43-1.46l-.66-1a1.46 1.46 0 0 1-.24-.79v-6.66c0-.28.16-.53.4-.66l1.1-.55.99 1.01c.25.25.57.37.9.37.32 0 .64-.12.89-.37l1-1.01 1.08.55c.25.13.4.38.4.66v6.66c0 .28-.08.55-.23.79l-.66 1c-.28.44-.43.94-.43 1.46v2.77c0 .34.27.61.6.61a.6.6 0 0 0 .6-.61v-2.77c0-.28.08-.55.23-.78l.66-1.01c.28-.43.43-.94.43-1.46v-6.66c0-.75-.4-1.42-1.06-1.75l-1.55-.79c-.03-.01-.04-.04-.04-.06v-.97c.8-.6 1.33-1.57 1.33-2.67v-1.35c0-.99-.54-1.85-1.33-2.3v-1.59c0-.28.15-.54.4-.66l1.1-.56.99 1.01c.24.25.57.38.89.38.32 0 .65-.13.9-.38l.99-1.01 1.09.56c.25.12.4.38.4.66v1.59a2.64 2.64 0 0 0-1.33 2.3v1.35c0 1.1.53 2.07 1.33 2.67v.97c0 .02-.01.05-.03.06l-1.56.79c-.66.33-1.06 1-1.06 1.75v6.66c0 .52.15 1.03.43 1.46l.66 1.01c.15.23.23.5.23.78v2.77c0 .34.27.61.6.61a.6.6 0 0 0 .6-.61v-2.77c0-.52-.15-1.02-.43-1.46l-.66-1a1.46 1.46 0 0 1-.23-.79v-6.66c0-.28.15-.53.4-.66l1.09-.55 1 1.01c.24.25.56.37.89.37.32 0 .64-.12.89-.37l1-1.01 1.08.55c.25.13.4.38.4.66v6.66c0 .28-.07.55-.23.79l-.66 1c-.28.44-.43.94-.43 1.46v2.77c0 .34.27.61.6.61a.6.6 0 0 0 .6-.61v-2.77c0-.28.08-.55.23-.78l.66-1.01c.29-.43.44-.94.44-1.46v-6.66c0-.75-.41-1.42-1.07-1.75l-1.55-.79c-.02-.01-.04-.04-.04-.06v-.97c.8-.6 1.33-1.57 1.33-2.67v-1.35c0-.99-.54-1.85-1.33-2.3v-1.59c0-.28.16-.54.4-.66l1.1-.56.99 1.01a1.26 1.26 0 0 0 1.79 0L33 9.01l1.1.56c.24.12.4.38.4.66v1.59a2.64 2.64 0 0 0-1.33 2.3v1.35c0 1.1.52 2.07 1.32 2.67v.97c0 .02-.01.05-.03.06l-1.56.79c-.65.33-1.06 1-1.06 1.75v6.66c0 .52.15 1.03.43 1.46l.66 1.01c.16.23.24.5.24.78v2.77c0 .34.27.61.6.61a.6.6 0 0 0 .6-.61v-2.77c0-.52-.15-1.02-.44-1.46l-.66-1a1.46 1.46 0 0 1-.23-.79v-6.66c0-.28.15-.53.4-.66l1.1-.55.99 1.01c.24.25.57.37.89.37.32 0 .65-.12.9-.37l.99-1.01 1.09.55c.25.13.4.38.4.66v6.66c0 .28-.08.55-.23.79l-.66 1c-.29.44-.44.94-.44 1.46v2.77c0 .34.27.61.6.61a.6.6 0 0 0 .6-.61v-2.77c0-.28.08-.55.24-.78l.66-1.01c.28-.43.43-.94.43-1.46v-6.66c0-.75-.4-1.42-1.06-1.75zm-35.31.68c-.03.03-.07.03-.1 0l-.85-.87c.11-.2.17-.42.17-.66v-.32h1.46v.32c0 .24.06.46.17.66zm2-6.52v1.35c0 1.16-.92 2.09-2.05 2.09a2.07 2.07 0 0 1-2.05-2.09v-1.35c0-.78.62-1.41 1.39-1.41h1.32c.77 0 1.4.63 1.4 1.41zm3.3-4.96a.07.07 0 0 1-.09 0l-.86-.88c.12-.19.18-.42.18-.65V7.3h1.45v.33c0 .23.07.46.18.65zM9.9 6.08a2.08 2.08 0 0 1-2.06-2.09V2.64c0-.78.63-1.42 1.4-1.42h1.32c.77 0 1.39.64 1.39 1.42v1.35c0 1.15-.92 2.09-2.05 2.09zm5.35 14.56c-.03.03-.07.03-.1 0l-.85-.87c.11-.2.18-.42.18-.66v-.32h1.45v.32c0 .24.06.46.18.66zm2-6.52v1.35c0 1.16-.92 2.09-2.05 2.09a2.07 2.07 0 0 1-2.05-2.09v-1.35c0-.78.62-1.41 1.39-1.41h1.33c.76 0 1.39.63 1.39 1.41zm3.3-4.96a.07.07 0 0 1-.08 0l-.86-.88c.11-.19.17-.42.17-.65V7.3h1.46v.33c0 .23.06.46.17.65zm-.04-3.08a2.08 2.08 0 0 1-2.05-2.09V2.64c0-.78.62-1.42 1.39-1.42h1.32c.77 0 1.4.64 1.4 1.42v1.35c0 1.15-.93 2.09-2.06 2.09zm5.35 14.56c-.02.03-.06.03-.09 0l-.86-.87c.12-.2.18-.42.18-.66v-.32h1.45v.32c0 .24.07.46.18.66zm2-6.52v1.35c0 1.16-.91 2.09-2.04 2.09a2.07 2.07 0 0 1-2.06-2.09v-1.35c0-.78.63-1.41 1.4-1.41h1.32c.77 0 1.39.63 1.39 1.41zm3.3-4.96a.07.07 0 0 1-.08 0l-.86-.88c.11-.19.18-.42.18-.65V7.3h1.45v.33c0 .23.06.46.18.65zm-.04-3.08a2.08 2.08 0 0 1-2.05-2.09V2.64c0-.78.62-1.42 1.39-1.42h1.33c.76 0 1.39.64 1.39 1.42v1.35c0 1.15-.92 2.09-2.06 2.09zm5.35 14.56c-.02.03-.06.03-.09 0l-.85-.87c.11-.2.17-.42.17-.66v-.32h1.46v.32c0 .24.06.46.17.66zm-.04-3.08a2.07 2.07 0 0 1-2.05-2.09v-1.35c0-.78.62-1.41 1.39-1.41h1.32c.77 0 1.4.63 1.4 1.41v1.35c0 1.16-.93 2.09-2.06 2.09z"/></svg>