<svg xmlns="http://www.w3.org/2000/svg" width="61" height="61" viewBox="0 0 61 61"><path d="M58.67 59l-8.59-18.2 5.02-5 3.93 4V26.6h-13.2l3.94 3.9-3.1 3.1-4.72-10H35.2l-2.15-3.9h-1.57v-5.9h22.4l-3.6-6L52.62 2H31.48V0h-1.96v19.7h-8.5L2.33 59H0v2h61v-2zM31.48 3.9h18.23L48.1 8l2.3 3.8H31.49zm21.07 26.6l-1.96-2h6.48V35l-1.97-2-15.74 15.8-6.9-6.9L18.7 55.7l-2.54-2.6 16.81-16.8 6.89 6.9zM4.51 59l17.76-37.4h9.61L37.51 32l1.73-1-2.97-5.4h4.43l4.49 9.5-5.34 5.3-6.89-6.9-19.6 19.6 5.33 5.4 13.78-13.8 6.89 6.9 9.24-9.3L56.5 59zM35 10V8h-2v2zm4 0V8h-2v2zm4 0V8h-2v2z"/></svg>