<svg xmlns="http://www.w3.org/2000/svg" width="67" height="65" viewBox="0 0 67 65"><path fill="#fff600" d="M64.26 1.74c-2.33-2.33-6.61-2.32-12.05.04-5.16 2.23-10.86 6.31-16.05 11.51a64.25 64.25 0 0 0-7.38 8.76c-.11.17-.17.37-.17.57v2.73c0 .19-.16.34-.35.34H25.8a.97.97 0 0 0-.67.26c-.8.72-1.6 1.47-2.35 2.23C18.1 32.86 14.41 38 12.4 42.65a18.75 18.75 0 0 0-1.55 5.48L8.8 55.79l-1.84 1.84.5-3.03a1 1 0 0 0-.81-1.15 1 1 0 0 0-1.15.82l-.93 5.59-.02.18-3.26 3.26a1 1 0 0 0 .7 1.7 1 1 0 0 0 .7-.29l3.23-3.23.24-.02 5.52-.92a1 1 0 1 0-.32-1.96l-3.04.5 1.89-1.88 7.64-2.05a18.9 18.9 0 0 0 5.5-1.55c4.65-2.01 9.79-5.7 14.47-10.38.76-.76 1.5-1.55 2.23-2.35.16-.19.26-.42.26-.67v-2.46c0-.19.15-.35.34-.35h2.73c.2 0 .4-.06.57-.17a65 65 0 0 0 8.76-7.38c5.35-5.35 9.5-11.2 11.69-16.46a1 1 0 1 0-1.84-.76 41.04 41.04 0 0 1-4.59 8.01l-4.81-.08a1 1 0 0 0-1.02.98c0 .55.43 1.01.98 1.01l3.37.06a65.5 65.5 0 0 1-6.4 7.02l-12.1-.2 7.23-7.23c.32.15.67.23 1.04.24l3.01.05h.02a1 1 0 1 0 .02-1.99l-2.35-.04 7.54-7.55a1 1 0 1 0-1.4-1.4l-7.45 7.45-.18-10.99A41.96 41.96 0 0 1 53 3.6c4.57-1.98 8.16-2.14 9.85-.45 1.5 1.49 1.28 4.11.83 6.05a1 1 0 0 0 .75 1.19 1 1 0 0 0 1.2-.75c.8-3.48.32-6.21-1.37-7.9zm-50.03 41.7c.74-1.71 1.72-3.5 2.91-5.3l.14 8.33c0 .24.05.49.12.72l-2.69 2.69-1.85-1.86c.17-1.33.63-2.88 1.37-4.58zM11.1 54.9l1.23-4.59 3.36 3.36zM30.5 47l-4.28-.07a.99.99 0 1 0-.03 1.98l1.55.03a34.98 34.98 0 0 1-5.18 2.83c-1.7.74-3.25 1.19-4.58 1.37l-1.86-1.86 2.65-2.64c.26.1.54.16.83.17l2.6.04h.02a1 1 0 1 0 .02-1.99l-1.66-.03 5.22-5.22c.36.18.76.28 1.17.29l9.2.15A58.16 58.16 0 0 1 30.5 47zm17.44-15.42a58.52 58.52 0 0 1-4.87 3.82h-2.42a2.34 2.34 0 0 0-2.33 2.34v2.08l-.26.27-10.57-.18 4.99-4.98a1 1 0 0 0-1.4-1.41l-4.89 4.88v-.61a1 1 0 1 0-2 .03l.02 1.29c0 .37.08.72.22 1.05l-5.18 5.18-.16-9.94a57.15 57.15 0 0 1 4.97-5.68l.07 4.25a1 1 0 0 0 1 .98h.01a1 1 0 0 0 .98-1.01l-.1-6.11.16-.15h2.08a2.33 2.33 0 0 0 2.34-2.33v-2.42a59.07 59.07 0 0 1 3.93-4.99l.18 10.68c0 .36.08.72.22 1.05l-.94.93a1 1 0 0 0 1.4 1.41l.9-.9c.37.18.76.29 1.18.29zm-11.25-3.67l-.2-12.11a65.32 65.32 0 0 1 7.01-6.37l.17 10.39c0 .32.07.63.18.92z"/></svg>