<svg xmlns="http://www.w3.org/2000/svg" width="57" height="57" viewBox="0 0 57 57"><path d="M54.25 14.71h-8.4a2.76 2.76 0 0 0-2.58-3.68h-.91V2.76A2.76 2.76 0 0 0 39.6 0H17.65a2.76 2.76 0 0 0-2.75 2.76v7.35c0 .51-.41.92-.91.92H5.75V9.19A2.75 2.75 0 0 0 3 6.44H.26v11.03H3a2.76 2.76 0 0 0 2.75-2.76v-1.84h8.24a2.76 2.76 0 0 0 2.74-2.76V2.76c0-.51.41-.92.92-.92H39.6c.5 0 .92.41.92.92v8.27h-.92a2.76 2.76 0 0 0-2.58 3.68h-8.4a2.76 2.76 0 0 0-2.75 2.76H8.18l-5.73 4.59 5.72 4.6h17.71v1.84H12.21l-7.77-.98L0 33.1l4.44 5.57 7.77-.98h13.67v2.76H.26v13.79h32.38a15.39 15.39 0 0 0 8.8 2.76C50.02 57 57 49.99 57 41.37v-23.9a2.76 2.76 0 0 0-2.75-2.76zm-50.33 0c0 .51-.41.92-.92.92H2.1V8.27H3c.5 0 .92.42.92.92zm3.66 9.12l-2.2-1.77 2.2-1.76zm1.83.99v-1.84h16.47v1.84zm0-3.68v-1.83h16.47v1.83zm1.83 14.83l-6.01.75-2.15-2.7h1a2.74 2.74 0 0 0 5.33-.92 2.74 2.74 0 1 0-5.32-.92H3.08l2.15-2.7 6.01.75zm-5.5-2.87a.92.92 0 1 1 1.84 0c0 .5-.41.92-.92.92a.92.92 0 0 1-.91-.92zm11 2.75v-5.51H14.9v5.51h-1.83v-5.52l12.81.01v5.51zM39.6 12.87h3.66c.5 0 .92.41.92.92s-.41.92-.92.92h-3.66a.92.92 0 0 1-.91-.92c0-.51.4-.92.91-.92zM2.1 52.4V42.29h1.83v2.76h1.83v-2.76h1.83v3.68H9.4v-3.68h1.83v2.76h1.83v-2.76h1.83v3.68h1.83v-3.68h1.83v2.76h1.83v-2.76h1.83v3.68h1.83v-3.68h1.88c.23 3.94 1.9 7.49 4.5 10.11zm53.08-11.03c0 7.61-6.16 13.79-13.73 13.79a13.77 13.77 0 0 1-13.73-13.79V27.58h27.46zm0-15.63H42.36v-7.35h-1.83v7.35H27.7v-8.27c0-.51.41-.92.92-.92h25.62c.5 0 .92.41.92.92z"/></svg>