<svg xmlns="http://www.w3.org/2000/svg" width="21" height="20" viewBox="0 0 21 20"><path fill="#2a4f37" d="M11.42 9.19a.4.4 0 0 1 0 .79.4.4 0 0 1 0-.8zm5.14-2.24a1.66 1.66 0 0 1-2.36 0 1.69 1.69 0 0 1 0-2.37 1.66 1.66 0 0 1 2.36 0c.65.65.65 1.72 0 2.37zM16 5.14a.88.88 0 0 0-1.25 0 .9.9 0 0 0 0 1.26c.35.34.9.34 1.25 0a.9.9 0 0 0 0-1.26zm5-4.18l-.01.19a11.87 11.87 0 0 1-4.56 8.8l-.9.7v2.17c0 1.8-.7 3.48-1.97 4.75l-2.3 2.31a.39.39 0 0 1-.42.1.4.4 0 0 1-.25-.35l-.26-4.93-.26.2a.4.4 0 0 1-.43.03c-.12-.05-.23-.12-.35-.18l-.59.49-.81.68a.4.4 0 0 1-.42.05 5.17 5.17 0 0 1-2.45-2.47.4.4 0 0 1 .05-.42l1.16-1.38a7.8 7.8 0 0 1-.24-.42.4.4 0 0 1 .04-.44l.2-.25-4.88-.25a.4.4 0 1 1-.26-.67l2.3-2.32A6.63 6.63 0 0 1 8.14 5.4l2.26.06.86-1.06A11.83 11.83 0 0 1 19.67.03l.36-.03a.9.9 0 0 1 .97.96zM6.84 9.84l2.93-3.62-1.65-.05c-1.57 0-3.05.62-4.17 1.74l-1.68 1.7zm1.77 4.45a9.2 9.2 0 0 1-1.92-1.91l-.85 1a4.35 4.35 0 0 0 1.75 1.76l.61-.5.41-.35zm6.13-1.47v-1.55l-3.65 2.84.24 4.59L13 17a5.9 5.9 0 0 0 1.73-4.18zM20.2.92a.12.12 0 0 0-.13-.13l-.36.02c-3.06.2-5.93 1.68-7.86 4.07L6.8 11.13c.29.5.63.96 1 1.38l2.08-2.08a.4.4 0 0 1 .56 0 .4.4 0 0 1 0 .55l-2.08 2.09c.44.4.91.76 1.42 1.05l6.16-4.8a11.09 11.09 0 0 0 4.26-8.2z"/></svg>