<svg xmlns="http://www.w3.org/2000/svg" width="53" height="41" viewBox="0 0 53 41"><path d="M4.1 18h2.49c.43 0 .77-.4.77-.8s-.34-.8-.77-.8h-2.5c-.42 0-.77.4-.77.8s.35.8.78.8zm0-6.6h17.42c.43 0 .78-.3.78-.8 0-.4-.35-.7-.78-.7H4.1c-.43 0-.78.3-.78.7 0 .5.35.8.78.8zm20.74 0h3.32c.43 0 .78-.3.78-.8 0-.4-.35-.7-.78-.7h-3.32c-.43 0-.78.3-.78.7 0 .5.35.8.78.8zm14.1 0h9.96c.43 0 .78-.3.78-.8 0-.4-.35-.7-.78-.7h-9.95c-.43 0-.78.3-.78.7 0 .5.35.8.78.8zm0 5c-.2 0-.4.1-.54.3-.15.1-.23.3-.23.5s.08.4.23.6c.14.1.34.2.55.2.2 0 .4-.1.55-.2.14-.2.22-.4.22-.6 0-.2-.08-.4-.22-.5a.68.68 0 0 0-.55-.3zm.56 6.8c-.15-.1-.35-.2-.55-.2-.2 0-.4.1-.55.2-.15.2-.23.4-.23.6 0 .2.08.4.23.5.14.2.34.3.55.3.2 0 .4-.1.55-.3.14-.1.22-.3.22-.5s-.08-.4-.22-.6zm-.55 6.4c-.2 0-.4.1-.55.2-.15.2-.23.4-.23.6 0 .2.08.4.23.5.14.2.34.2.55.2.2 0 .4 0 .55-.2.14-.1.22-.3.22-.5s-.08-.4-.22-.6c-.15-.1-.35-.2-.55-.2zm3.31 0c-.2 0-.4.1-.55.2-.14.2-.22.4-.22.6 0 .2.08.4.22.5.15.2.35.2.55.2.2 0 .41 0 .55-.2.15-.1.23-.3.23-.5s-.08-.4-.23-.6c-.14-.1-.34-.2-.55-.2zm-3.31 6.6c-.2 0-.4.1-.55.2-.15.1-.23.3-.23.5s.08.4.23.6c.14.1.34.2.55.2.2 0 .4-.1.55-.2.14-.2.22-.4.22-.6 0-.2-.08-.4-.22-.5-.15-.1-.35-.2-.55-.2zm3.31 0c-.2 0-.4.1-.55.2-.14.1-.22.3-.22.5s.08.4.22.6c.15.1.35.2.55.2.2 0 .41-.1.55-.2.15-.2.23-.4.23-.6 0-.2-.08-.4-.23-.5-.14-.1-.34-.2-.55-.2zm3.87-6.4c-.14-.1-.34-.2-.55-.2-.2 0-.4.1-.55.2-.14.2-.22.4-.22.6 0 .2.08.4.22.5.15.2.35.2.55.2.2 0 .41 0 .55-.2.15-.1.23-.3.23-.5s-.08-.4-.23-.6zm-3.32-13.1a.68.68 0 0 0-.55-.3c-.2 0-.4.1-.55.3-.14.1-.22.3-.22.5s.08.4.22.6c.15.1.35.2.55.2.2 0 .41-.1.55-.2.15-.2.23-.4.23-.6 0-.2-.08-.4-.23-.5zM6.6 36.2h-2.5c-.42 0-.77.3-.77.7 0 .5.35.8.78.8h2.49c.43 0 .77-.3.77-.8 0-.4-.34-.7-.77-.7zm8.3-31.4h23.23c.43 0 .77-.3.77-.7 0-.5-.34-.8-.77-.8H14.88c-.43 0-.77.3-.77.8 0 .4.34.7.77.7zM4.08 24.6h2.5c.43 0 .77-.4.77-.8s-.34-.8-.77-.8h-2.5c-.42 0-.77.4-.77.8s.35.8.78.8zm2.5 5h-2.5c-.42 0-.77.3-.77.8 0 .4.35.7.78.7h2.49c.43 0 .77-.3.77-.7 0-.5-.34-.8-.77-.8zm15.76 0H20.7c-.43 0-.78.3-.78.8 0 .4.35.7.78.7h1.66c.43 0 .78-.3.78-.7 0-.5-.35-.8-.78-.8zm-1.66 8.1h1.66c.43 0 .78-.3.78-.8 0-.4-.35-.7-.78-.7H20.7c-.43 0-.78.3-.78.7 0 .5.35.8.78.8zM22.35 23H20.7c-.43 0-.78.4-.78.8s.35.8.78.8h1.66c.43 0 .78-.4.78-.8s-.35-.8-.78-.8zm-1.66-5h1.66c.43 0 .78-.4.78-.8s-.35-.8-.78-.8H20.7c-.43 0-.78.4-.78.8s.35.8.78.8zm4.98 0h3.32c.43 0 .78-.4.78-.8s-.35-.8-.78-.8h-3.32c-.43 0-.78.4-.78.8s.35.8.78.8zm5.8 5h-5.8c-.43 0-.78.4-.78.8s.35.8.78.8h5.8c.44 0 .79-.4.79-.8s-.35-.8-.78-.8zm-4.14 6.6h-1.66c-.43 0-.78.3-.78.8 0 .4.35.7.78.7h1.66c.43 0 .78-.3.78-.7 0-.5-.35-.8-.78-.8zm-1.66 8.1h3.32c.43 0 .78-.3.78-.8 0-.4-.35-.7-.78-.7h-3.32c-.43 0-.78.3-.78.7 0 .5.35.8.78.8zM48.9 0H4.1C1.84 0 0 1.8 0 4.1v32.8C0 39.2 1.84 41 4.1 41h44.8c2.26 0 4.1-1.8 4.1-4.1V4.1C53 1.8 51.16 0 48.9 0zM18.15 32.9v-5.1h16.7v5.1zm16.7 1.5v5.1h-16.7v-5.1zm16.6-26.3v5.1H36.4V8.1zm-16.6 6.6v5h-16.7v-5zm-18.25 5H1.56v-5H16.6zm0 1.6v5H1.56v-5zm1.55 0h16.7v5h-16.7zm18.25 0h15.04v5H36.4zm0-1.6v-5h15.04v5zm-1.55-6.5H1.55V8.1h33.3zM1.55 27.8H16.6v5.1H1.56zm34.85 0h15.04v5.1H36.4zM4.1 1.5h44.8a2.6 2.6 0 0 1 2.54 2.6v2.5H1.56V4.1A2.6 2.6 0 0 1 4.1 1.5zM1.56 36.9v-2.5h15.03v5.1H4.1a2.6 2.6 0 0 1-2.53-2.6zm47.34 2.6H36.4v-5.1h15.04v2.5a2.6 2.6 0 0 1-2.54 2.6z"/></svg>