<svg xmlns="http://www.w3.org/2000/svg" width="36" height="75" viewBox="0 0 36 75"><path fill="#00d2ff" d="M19.89 16.15a1.2 1.2 0 0 0-1.18 1.2v1.79c0 .66.53 1.2 1.18 1.2a1.2 1.2 0 0 0 1.18-1.2v-1.79c0-.66-.53-1.2-1.18-1.2zm10.47 0a1.2 1.2 0 0 0-1.18 1.2v1.79c0 .66.53 1.2 1.18 1.2a1.2 1.2 0 0 0 1.18-1.2v-1.79c0-.66-.53-1.2-1.18-1.2zm.37 22.88v-3.84h3.82a1.2 1.2 0 0 0 1.18-1.2V8.71c0-.66-.53-1.19-1.18-1.19h-12.2V6.07A3.16 3.16 0 0 0 21.19 0a3.13 3.13 0 0 0-3.12 3.15c0 1.32.8 2.45 1.94 2.92v1.45H5.18C4.53 7.52 4 8.05 4 8.71v25.28c0 .66.53 1.2 1.18 1.2h4.5v4.47l-.62.68C5.32 44.63 4.89 50.57 5.18 54.8c.04.63.56 1.11 1.18 1.11h.08a1.2 1.2 0 0 0 1.1-1.28c-.32-4.51.43-8.32 2.15-11.14v13.02c0 .66.53 1.19 1.18 1.19h3.57c.88 2.34 3.3 10.06-.64 15.39a1.2 1.2 0 0 0-.1 1.25c.2.4.6.66 1.05.66h3.06c.65 0 1.18-.53 1.18-1.19 0-.66-.53-1.2-1.18-1.2h-.96c1.4-2.84 1.83-6.34 1.24-10.25a27.7 27.7 0 0 0-1.14-4.66h6.98c.88 2.34 3.3 10.06-.64 15.39a1.2 1.2 0 0 0-.1 1.25c.2.4.6.66 1.05.66h3.06c.65 0 1.18-.53 1.18-1.19 0-.66-.53-1.2-1.18-1.2h-.96c1.4-2.84 1.83-6.34 1.24-10.25a27.68 27.68 0 0 0-1.14-4.66h3.11c.66 0 1.18-.53 1.18-1.19v-5.27c0-.66-.52-1.2-1.18-1.2a1.2 1.2 0 0 0-1.17 1.2v4.08H12.05V40.73a8.28 8.28 0 0 1 2.53-1.51c.63-.19.98-.85.8-1.48-.18-.64-.83-1-1.46-.82-.06.02-.82.25-1.87.89v-2.62h16.32v12.7c0 .66.53 1.2 1.18 1.2a1.2 1.2 0 0 0 1.18-1.2v-5.41c1.8 2.33 3.25 6.11 2.84 12.15a1.2 1.2 0 0 0 1.1 1.28h.07c.62 0 1.14-.48 1.18-1.11.6-8.7-2.38-13.35-5.19-15.77zM21.18 2.39a.77.77 0 0 1 0 1.53.77.77 0 0 1 0-1.53zM14.4 18.12c0-.66-.53-1.2-1.18-1.2a1.2 1.2 0 0 0-1.18 1.2V32.8h-5.7V9.91h5.7v4.54c0 .66.53 1.2 1.18 1.2a1.2 1.2 0 0 0 1.18-1.2V9.91h18.96v13.42h-12.6a3.22 3.22 0 0 0-3.19 3.24 3.22 3.22 0 0 0 3.2 3.23h12.59v3H14.4zm18.96 9.29h-2.48v-1.69h2.48zm-4.83 0h-2.96v-1.69h2.96zm-5.32 0h-2.45a.84.84 0 0 1-.83-.84c0-.47.37-.85.83-.85h2.45z"/><path fill="#ff033e" d="M15.89 16.15a1.2 1.2 0 0 0-1.18 1.2v1.79c0 .66.53 1.2 1.18 1.2a1.2 1.2 0 0 0 1.18-1.2v-1.79c0-.66-.53-1.2-1.18-1.2zm10.47 0a1.2 1.2 0 0 0-1.18 1.2v1.79c0 .66.53 1.2 1.18 1.2a1.2 1.2 0 0 0 1.18-1.2v-1.79c0-.66-.53-1.2-1.18-1.2zm.37 22.88v-3.84h3.82a1.2 1.2 0 0 0 1.18-1.2V8.71c0-.66-.53-1.19-1.18-1.19h-12.2V6.07a3.16 3.16 0 0 0 1.94-2.92c0-1.74-1.4-3.15-3.11-3.15a3.13 3.13 0 0 0-3.12 3.15c0 1.32.8 2.45 1.94 2.92v1.45H1.18C.53 7.52 0 8.05 0 8.71v25.28c0 .66.53 1.2 1.18 1.2h4.5v4.47l-.62.68C1.32 44.63.89 50.57 1.18 54.8c.04.63.56 1.11 1.18 1.11h.08a1.2 1.2 0 0 0 1.1-1.28c-.32-4.51.43-8.32 2.15-11.14v13.02c0 .66.53 1.19 1.18 1.19h3.57c.88 2.34 3.3 10.06-.64 15.39a1.2 1.2 0 0 0-.1 1.25c.2.4.6.66 1.05.66h3.06c.65 0 1.18-.53 1.18-1.19 0-.66-.53-1.2-1.18-1.2h-.96c1.4-2.84 1.83-6.34 1.24-10.25a27.7 27.7 0 0 0-1.14-4.66h6.98c.88 2.34 3.3 10.06-.64 15.39a1.2 1.2 0 0 0-.1 1.25c.2.4.6.66 1.05.66h3.06c.65 0 1.18-.53 1.18-1.19 0-.66-.53-1.2-1.18-1.2h-.96c1.4-2.84 1.83-6.34 1.24-10.25a27.68 27.68 0 0 0-1.14-4.66h3.11c.66 0 1.18-.53 1.18-1.19v-5.27c0-.66-.52-1.2-1.18-1.2a1.2 1.2 0 0 0-1.17 1.2v4.08H8.05V40.73a8.28 8.28 0 0 1 2.53-1.51c.63-.19.98-.85.8-1.48-.18-.64-.83-1-1.46-.82-.06.02-.82.25-1.87.89v-2.62h16.32v12.7c0 .66.53 1.2 1.18 1.2a1.2 1.2 0 0 0 1.18-1.2v-5.41c1.8 2.33 3.25 6.11 2.84 12.15a1.2 1.2 0 0 0 1.1 1.28h.07c.62 0 1.14-.48 1.18-1.11.6-8.7-2.38-13.35-5.19-15.77zM17.18 2.39a.77.77 0 0 1 0 1.53.77.77 0 0 1 0-1.53zM10.4 18.12c0-.66-.53-1.2-1.18-1.2a1.2 1.2 0 0 0-1.18 1.2V32.8h-5.7V9.91h5.7v4.54c0 .66.53 1.2 1.18 1.2a1.2 1.2 0 0 0 1.18-1.2V9.91h18.96v13.42h-12.6a3.22 3.22 0 0 0-3.19 3.24 3.22 3.22 0 0 0 3.2 3.23h12.59v3H10.4zm18.96 9.29h-2.48v-1.69h2.48zm-4.83 0h-2.96v-1.69h2.96zm-5.32 0h-2.45a.84.84 0 0 1-.83-.84c0-.47.37-.85.83-.85h2.45z"/><path d="M17.89 16.15a1.2 1.2 0 0 0-1.18 1.2v1.79c0 .66.53 1.2 1.18 1.2a1.2 1.2 0 0 0 1.18-1.2v-1.79c0-.66-.53-1.2-1.18-1.2zm10.47 0a1.2 1.2 0 0 0-1.18 1.2v1.79c0 .66.53 1.2 1.18 1.2a1.2 1.2 0 0 0 1.18-1.2v-1.79c0-.66-.53-1.2-1.18-1.2zm.37 22.88v-3.84h3.82a1.2 1.2 0 0 0 1.18-1.2V8.71c0-.66-.53-1.19-1.18-1.19h-12.2V6.07a3.16 3.16 0 0 0 1.94-2.92c0-1.74-1.4-3.15-3.11-3.15a3.13 3.13 0 0 0-3.12 3.15c0 1.32.8 2.45 1.94 2.92v1.45H3.18C2.53 7.52 2 8.05 2 8.71v25.28c0 .66.53 1.2 1.18 1.2h4.5v4.47l-.62.68C3.32 44.63 2.89 50.57 3.18 54.8c.04.63.56 1.11 1.18 1.11h.08a1.2 1.2 0 0 0 1.1-1.28c-.32-4.51.43-8.32 2.15-11.14v13.02c0 .66.53 1.19 1.18 1.19h3.57c.88 2.34 3.3 10.06-.64 15.39a1.2 1.2 0 0 0-.1 1.25c.2.4.6.66 1.05.66h3.06c.65 0 1.18-.53 1.18-1.19 0-.66-.53-1.2-1.18-1.2h-.96c1.4-2.84 1.83-6.34 1.24-10.25a27.7 27.7 0 0 0-1.14-4.66h6.98c.88 2.34 3.3 10.06-.64 15.39a1.2 1.2 0 0 0-.1 1.25c.2.4.6.66 1.05.66h3.06c.65 0 1.18-.53 1.18-1.19 0-.66-.53-1.2-1.18-1.2h-.96c1.4-2.84 1.83-6.34 1.24-10.25a27.8 27.8 0 0 0-1.14-4.66h3.11c.66 0 1.18-.53 1.18-1.19v-5.27c0-.66-.52-1.2-1.18-1.2a1.2 1.2 0 0 0-1.17 1.2v4.08H10.05V40.73a8.28 8.28 0 0 1 2.53-1.51c.63-.19.98-.85.8-1.48-.18-.64-.83-1-1.46-.82-.06.02-.82.25-1.87.89v-2.62h16.32v12.7c0 .66.53 1.2 1.18 1.2a1.2 1.2 0 0 0 1.18-1.2v-5.41c1.8 2.33 3.25 6.11 2.84 12.15a1.2 1.2 0 0 0 1.1 1.28h.07c.62 0 1.14-.48 1.18-1.11.6-8.7-2.38-13.35-5.19-15.77zM19.18 2.39a.77.77 0 0 1 0 1.53.77.77 0 0 1 0-1.53zM12.4 18.12c0-.66-.53-1.2-1.18-1.2a1.2 1.2 0 0 0-1.18 1.2V32.8h-5.7V9.91h5.7v4.54c0 .66.53 1.2 1.18 1.2a1.2 1.2 0 0 0 1.18-1.2V9.91h18.96v13.42h-12.6a3.22 3.22 0 0 0-3.19 3.24 3.22 3.22 0 0 0 3.2 3.23h12.59v3H12.4zm18.96 9.29h-2.48v-1.69h2.48zm-4.83 0h-2.96v-1.69h2.96zm-5.32 0h-2.45a.84.84 0 0 1-.83-.84c0-.47.37-.85.83-.85h2.45z"/></svg>